<?xml version="1.0" encoding="utf-8"?>
<!-- Generator: Adobe Illustrator 22.1.0, SVG Export Plug-In . SVG Version: 6.00 Build 0)  -->
<svg version="1.1" id="Camada_1" xmlns="http://www.w3.org/2000/svg" xmlns:xlink="http://www.w3.org/1999/xlink" x="0px" y="0px"
	 viewBox="0 0 50 50" style="enable-background:new 0 0 50 50;" xml:space="preserve">
<style type="text/css">
	.st0{fill:#FFFFFF;}
</style>
<path class="st0" d="M0,0v50h50V0H0z M26.3,38.2c-0.4,0.4-0.9,0.6-1.6,0.6c-0.7,0-1.2-0.2-1.6-0.6c-0.4-0.4-0.5-0.9-0.5-1.4
	c0-0.6,0.2-1.1,0.5-1.5c0.4-0.4,0.9-0.6,1.6-0.6c0.7,0,1.2,0.2,1.6,0.6c0.4,0.4,0.5,0.9,0.5,1.5C26.8,37.4,26.7,37.9,26.3,38.2z
	 M32.5,20.7c-0.3,0.8-0.7,1.5-1.2,2.2c-0.5,0.7-1,1.4-1.6,2c-0.6,0.6-1.2,1.2-1.8,1.7c-0.4,0.4-0.7,0.7-0.9,1
	c-0.2,0.3-0.4,0.6-0.5,1c-0.1,0.3-0.2,0.7-0.2,1.1c0,0.4,0,0.8,0,1.3H23c0-0.9,0-1.6,0.1-2.2c0.1-0.6,0.2-1.1,0.4-1.5
	c0.2-0.5,0.5-0.9,0.9-1.3c0.4-0.4,0.9-0.9,1.5-1.5c0.4-0.4,0.9-0.9,1.3-1.3c0.4-0.5,0.8-0.9,1.2-1.4c0.4-0.5,0.7-1,0.9-1.6
	c0.2-0.6,0.4-1.1,0.4-1.8c0-1.3-0.4-2.4-1.2-3.1c-0.8-0.7-1.9-1.1-3.3-1.1c-0.6,0-1.1,0.1-1.7,0.2c-0.6,0.1-1,0.4-1.5,0.7
	c-0.4,0.3-0.8,0.7-1,1.2c-0.3,0.5-0.4,1-0.4,1.7H17c0-1,0.2-2,0.7-2.8c0.4-0.8,1-1.5,1.7-2.1c0.7-0.6,1.6-1,2.5-1.3
	c1-0.3,2-0.5,3.1-0.5c1.3,0,2.4,0.2,3.4,0.5c1,0.3,1.8,0.8,2.5,1.4c0.7,0.6,1.2,1.3,1.6,2.2c0.4,0.9,0.5,1.9,0.5,3
	C33,19.1,32.8,20,32.5,20.7z"/>
</svg>
