<?xml version="1.0" encoding="utf-8"?>
<!-- Generator: Adobe Illustrator 22.1.0, SVG Export Plug-In . SVG Version: 6.00 Build 0)  -->
<svg version="1.1" id="Camada_1" xmlns="http://www.w3.org/2000/svg" xmlns:xlink="http://www.w3.org/1999/xlink" x="0px" y="0px"
	 viewBox="0 0 50 50" style="enable-background:new 0 0 50 50;" xml:space="preserve">
<style type="text/css">
	.st0{fill:#FFFFFF;}
</style>
<path class="st0" d="M0,0v50h50V0H0z M26,35.7c-0.3,0.3-0.7,0.5-1.3,0.5c-0.6,0-1-0.2-1.3-0.5C23.2,35.4,23,35,23,34.6
	c0-0.5,0.1-0.9,0.4-1.2c0.3-0.3,0.7-0.5,1.3-0.5c0.6,0,1,0.2,1.3,0.5c0.3,0.3,0.4,0.7,0.4,1.2C26.5,35,26.3,35.4,26,35.7z
	 M31.1,21.6c-0.3,0.6-0.6,1.2-1,1.8c-0.4,0.6-0.8,1.1-1.3,1.6c-0.5,0.5-1,0.9-1.4,1.4c-0.3,0.3-0.5,0.6-0.7,0.8
	c-0.2,0.3-0.3,0.5-0.4,0.8c-0.1,0.3-0.1,0.6-0.2,0.9c0,0.3,0,0.7,0,1h-2.8c0-0.7,0-1.3,0.1-1.8c0.1-0.5,0.2-0.9,0.3-1.2
	c0.2-0.4,0.4-0.7,0.7-1.1c0.3-0.3,0.7-0.7,1.2-1.2c0.3-0.4,0.7-0.7,1-1.1c0.4-0.4,0.7-0.8,1-1.2c0.3-0.4,0.5-0.8,0.7-1.3
	c0.2-0.5,0.3-0.9,0.3-1.4c0-1.1-0.3-1.9-0.9-2.5c-0.6-0.6-1.5-0.9-2.7-0.9c-0.5,0-0.9,0.1-1.4,0.2c-0.4,0.1-0.8,0.3-1.2,0.5
	c-0.3,0.2-0.6,0.6-0.8,0.9c-0.2,0.4-0.3,0.8-0.3,1.3h-2.8c0-0.8,0.2-1.6,0.5-2.3c0.3-0.7,0.8-1.2,1.4-1.7c0.6-0.5,1.3-0.8,2-1.1
	c0.8-0.2,1.6-0.4,2.5-0.4c1,0,1.9,0.1,2.7,0.4c0.8,0.3,1.5,0.6,2,1.1c0.6,0.5,1,1.1,1.3,1.8c0.3,0.7,0.4,1.5,0.4,2.4
	C31.5,20.2,31.3,20.9,31.1,21.6z"/>
</svg>
