<?xml version="1.0" encoding="utf-8"?>
<!-- Generator: Adobe Illustrator 22.1.0, SVG Export Plug-In . SVG Version: 6.00 Build 0)  -->
<svg version="1.1" id="Camada_1" xmlns="http://www.w3.org/2000/svg" xmlns:xlink="http://www.w3.org/1999/xlink" x="0px" y="0px"
	 viewBox="0 0 173.8 52.2" style="enable-background:new 0 0 173.8 52.2;" xml:space="preserve">
<style type="text/css">
	.st0{fill:#1A1A1A;}
	.st1{fill:#FFFFFF;}
</style>
<path class="st0" d="M35.6,5.1v45.7c0,0.2-0.2,0.4-0.4,0.4H11.7c-5.9,0-10.6-4.8-10.6-10.6V5.1c0-2.2,1.8-3.9,3.9-3.9h26.7
	C33.9,1.2,35.6,2.9,35.6,5.1z"/>
<g>
	<path class="st0" d="M47.4,36.3c-1.5-0.8-2.7-1.8-3.5-3.2c-0.8-1.4-1.2-3-1.2-4.8c0-2.6,0.5-4.8,1.4-6.8c1-2,2.3-3.5,3.9-4.6
		c1.6-1.1,3.5-1.6,5.5-1.6c1.9,0,3.3,0.5,4.3,1.4c1,1,1.5,2.2,1.5,3.8c0,1.1-0.2,1.9-0.6,2.6s-0.9,1-1.6,1c-0.5,0-0.9-0.1-1.1-0.3
		c-0.3-0.2-0.4-0.6-0.4-1c0-0.2,0-0.4,0.1-0.9c0.1-0.5,0.2-0.9,0.2-1.3c0-1.6-0.8-2.4-2.5-2.4c-1.1,0-2.2,0.4-3.3,1.1
		c-1,0.7-1.9,1.8-2.5,3.3c-0.6,1.4-1,3.2-1,5.2c0,2.1,0.6,3.7,1.7,4.8c1.2,1.1,2.9,1.7,5.2,1.7c1.1,0,2.3-0.1,3.4-0.4
		c1.2-0.3,2.4-0.7,3.8-1.3c0.3-0.1,0.5-0.2,0.7-0.2c0.3,0,0.5,0.1,0.6,0.3c0.1,0.2,0.2,0.5,0.2,0.8c0,1.1-0.6,1.8-1.7,2.3
		c-1.2,0.5-2.5,0.9-3.8,1.2c-1.3,0.3-2.6,0.4-3.8,0.4C50.7,37.5,48.9,37.1,47.4,36.3z"/>
	<path class="st0" d="M60.7,36.3c-0.6-0.8-1-1.8-1-3.1c0-1.4,0.3-2.7,1-3.9c0.6-1.2,1.5-2.2,2.6-3c1.1-0.8,2.2-1.1,3.4-1.1
		c0.4,0,0.6,0.1,0.8,0.2c0.1,0.1,0.2,0.4,0.3,0.8c0.4-0.1,0.7-0.1,1.1-0.1c0.8,0,1.3,0.3,1.3,0.9c0,0.4-0.1,1.2-0.4,2.6
		c-0.4,2-0.6,3.4-0.6,4.2c0,0.3,0.1,0.5,0.2,0.6s0.3,0.2,0.5,0.2c0.3,0,0.7-0.2,1.2-0.6c0.5-0.4,1.1-1.1,1.9-2.1
		c0.2-0.2,0.4-0.4,0.7-0.4c0.2,0,0.4,0.1,0.5,0.3c0.1,0.2,0.2,0.5,0.2,0.9c0,0.7-0.2,1.2-0.5,1.6c-0.7,0.9-1.5,1.6-2.3,2.2
		c-0.8,0.6-1.6,0.9-2.3,0.9c-0.6,0-1.1-0.2-1.6-0.6c-0.5-0.4-0.8-0.9-1.1-1.6c-0.9,1.5-2,2.2-3.4,2.2C62.2,37.5,61.4,37.1,60.7,36.3
		z M65.3,34.2c0.3-0.5,0.6-1,0.8-1.8l1-4.8c-0.7,0-1.4,0.3-2,0.8c-0.6,0.5-1.1,1.2-1.5,2.1c-0.4,0.9-0.5,1.8-0.5,2.8
		c0,0.5,0.1,0.9,0.3,1.2c0.2,0.3,0.5,0.4,0.9,0.4C64.6,34.8,65,34.6,65.3,34.2z"/>
	<path class="st0" d="M82.7,31.8c0.1,0.2,0.2,0.5,0.2,0.9c0,0.7-0.2,1.2-0.5,1.6c-0.7,0.9-1.6,1.7-2.4,2.3c-0.9,0.6-1.9,0.9-3,0.9
		c-1.5,0-2.7-0.7-3.4-2.1c-0.7-1.4-1.1-3.2-1.1-5.4c0-2.1,0.3-4.5,0.8-7.2c0.5-2.7,1.4-5,2.4-7c1.1-1.9,2.3-2.9,3.8-2.9
		c0.8,0,1.5,0.4,2,1.2c0.5,0.8,0.7,1.9,0.7,3.3c0,2.1-0.6,4.5-1.7,7.2c-1.1,2.7-2.7,5.4-4.7,8.1c0.1,0.7,0.3,1.2,0.6,1.5
		c0.3,0.3,0.6,0.5,1.1,0.5c0.7,0,1.3-0.2,1.9-0.6c0.5-0.4,1.2-1.1,2.1-2.1c0.2-0.2,0.4-0.4,0.7-0.4C82.4,31.5,82.6,31.6,82.7,31.8z
		 M77.7,17.6c-0.5,1.4-0.9,3.2-1.3,5.4c-0.4,2.1-0.6,4.2-0.6,6.1c1.2-2,2.2-4.1,2.9-6.1c0.7-2,1.1-3.9,1.1-5.6c0-1.3-0.2-2-0.7-2
		C78.6,15.4,78.2,16.2,77.7,17.6z"/>
	<path class="st0" d="M81.8,36c-0.9-1-1.4-2.2-1.4-3.8c0-1.4,0.3-2.6,0.8-3.7c0.6-1.1,1.3-1.9,2.2-2.4c0.9-0.6,1.8-0.9,2.8-0.9
		c1,0,1.7,0.3,2.2,0.8c0.5,0.6,0.8,1.3,0.8,2.2c0,0.7-0.2,1.3-0.5,1.8s-0.7,0.8-1.3,0.8c-0.3,0-0.6-0.1-0.8-0.2
		c-0.2-0.2-0.3-0.4-0.3-0.7c0-0.1,0-0.3,0.1-0.4c0-0.2,0.1-0.3,0.1-0.3c0.1-0.3,0.1-0.5,0.1-0.7c0-0.2-0.1-0.4-0.2-0.5
		c-0.1-0.1-0.3-0.2-0.5-0.2c-0.4,0-0.8,0.2-1.1,0.5c-0.3,0.4-0.6,0.8-0.8,1.4c-0.2,0.6-0.3,1.3-0.3,2c0,2,0.9,3,2.6,3
		c0.7,0,1.5-0.2,2.3-0.7s1.6-1.2,2.4-2.1c0.2-0.2,0.4-0.4,0.7-0.4c0.2,0,0.4,0.1,0.5,0.3c0.1,0.2,0.2,0.5,0.2,0.9
		c0,0.7-0.2,1.2-0.5,1.6c-0.8,1-1.8,1.8-2.9,2.3c-1.1,0.5-2.2,0.8-3.3,0.8C84.1,37.5,82.8,37,81.8,36z"/>
	<path class="st0" d="M91.2,36.4c-0.5-0.7-0.7-1.6-0.7-2.7c0-1.3,0.1-2.5,0.3-3.6c0.2-1.1,0.5-2.2,0.9-3.4c0.2-0.5,0.4-0.9,0.7-1.1
		c0.3-0.2,0.8-0.3,1.5-0.3c0.4,0,0.6,0.1,0.8,0.2c0.1,0.1,0.2,0.3,0.2,0.5c0,0.1-0.1,0.6-0.3,1.4c-0.2,0.6-0.3,1.2-0.4,1.7
		c-0.3,1.8-0.5,3-0.5,3.6c0,0.4,0,0.6,0.1,0.8c0.1,0.1,0.2,0.2,0.4,0.2c0.3,0,0.6-0.3,1-0.8c0.4-0.5,0.8-1.3,1.3-2.4
		c0.4-1.1,0.9-2.4,1.3-3.9c0.1-0.5,0.4-0.9,0.6-1.1c0.3-0.2,0.7-0.3,1.3-0.3c0.4,0,0.7,0,0.8,0.1c0.2,0.1,0.2,0.3,0.2,0.5
		c0,0.4-0.2,1.6-0.7,3.6c-0.5,2.2-0.7,3.6-0.7,4.1c0,0.3,0.1,0.6,0.2,0.8c0.1,0.2,0.3,0.3,0.5,0.3c0.3,0,0.8-0.2,1.2-0.6
		s1.1-1.1,1.9-2.1c0.2-0.2,0.4-0.4,0.7-0.4c0.2,0,0.4,0.1,0.5,0.3c0.1,0.2,0.2,0.5,0.2,0.9c0,0.7-0.2,1.2-0.5,1.6
		c-0.7,0.9-1.5,1.7-2.4,2.3c-0.9,0.6-1.8,0.9-2.9,0.9c-0.8,0-1.4-0.3-1.8-1c-0.4-0.6-0.6-1.5-0.6-2.7C96,35,95.6,35.9,95,36.5
		c-0.6,0.6-1.2,1-1.9,1C92.3,37.5,91.6,37.1,91.2,36.4z"/>
	<path class="st0" d="M112.8,31.8c0.1,0.2,0.2,0.5,0.2,0.9c0,0.7-0.2,1.2-0.5,1.6c-0.7,0.9-1.6,1.7-2.4,2.3c-0.9,0.6-1.9,0.9-3,0.9
		c-1.5,0-2.7-0.7-3.4-2.1c-0.7-1.4-1.1-3.2-1.1-5.4c0-2.1,0.3-4.5,0.8-7.2c0.5-2.7,1.4-5,2.4-7c1.1-1.9,2.3-2.9,3.8-2.9
		c0.8,0,1.5,0.4,2,1.2c0.5,0.8,0.7,1.9,0.7,3.3c0,2.1-0.6,4.5-1.7,7.2s-2.7,5.4-4.7,8.1c0.1,0.7,0.3,1.2,0.6,1.5
		c0.3,0.3,0.6,0.5,1.1,0.5c0.7,0,1.3-0.2,1.9-0.6c0.5-0.4,1.2-1.1,2.1-2.1c0.2-0.2,0.4-0.4,0.7-0.4
		C112.5,31.5,112.7,31.6,112.8,31.8z M107.8,17.6c-0.5,1.4-0.9,3.2-1.3,5.4c-0.4,2.1-0.6,4.2-0.6,6.1c1.2-2,2.2-4.1,2.9-6.1
		c0.7-2,1.1-3.9,1.1-5.6c0-1.3-0.2-2-0.7-2C108.7,15.4,108.3,16.2,107.8,17.6z"/>
	<path class="st0" d="M111.3,36.3c-0.6-0.8-1-1.8-1-3.1c0-1.4,0.3-2.7,1-3.9c0.6-1.2,1.5-2.2,2.6-3c1.1-0.8,2.2-1.1,3.4-1.1
		c0.4,0,0.6,0.1,0.8,0.2c0.1,0.1,0.2,0.4,0.3,0.8c0.4-0.1,0.7-0.1,1.1-0.1c0.8,0,1.3,0.3,1.3,0.9c0,0.4-0.1,1.2-0.4,2.6
		c-0.4,2-0.6,3.4-0.6,4.2c0,0.3,0.1,0.5,0.2,0.6s0.3,0.2,0.5,0.2c0.3,0,0.7-0.2,1.2-0.6c0.5-0.4,1.1-1.1,1.9-2.1
		c0.2-0.2,0.4-0.4,0.7-0.4c0.2,0,0.4,0.1,0.5,0.3c0.1,0.2,0.2,0.5,0.2,0.9c0,0.7-0.2,1.2-0.5,1.6c-0.7,0.9-1.5,1.6-2.3,2.2
		c-0.8,0.6-1.6,0.9-2.3,0.9c-0.6,0-1.1-0.2-1.6-0.6c-0.5-0.4-0.8-0.9-1.1-1.6c-0.9,1.5-2,2.2-3.4,2.2
		C112.8,37.5,111.9,37.1,111.3,36.3z M115.9,34.2c0.3-0.5,0.6-1,0.8-1.8l1-4.8c-0.7,0-1.4,0.3-2,0.8c-0.6,0.5-1.1,1.2-1.5,2.1
		c-0.4,0.9-0.5,1.8-0.5,2.8c0,0.5,0.1,0.9,0.3,1.2c0.2,0.3,0.5,0.4,0.9,0.4C115.2,34.8,115.6,34.6,115.9,34.2z"/>
	<path class="st0" d="M138.2,31.8c0.1,0.2,0.2,0.5,0.2,0.9c0,0.7-0.2,1.2-0.5,1.6c-0.7,0.9-1.5,1.6-2.3,2.2
		c-0.9,0.6-1.7,0.9-2.5,0.9c-1.3,0-2.3-0.8-3-2.3c-0.7,0.9-1.4,1.5-1.9,1.8c-0.5,0.3-1.2,0.5-1.9,0.5c-1.1,0-1.9-0.4-2.6-1.2
		c-0.7-0.8-1-1.8-1-3.1c0-1.4,0.3-2.7,0.9-3.9c0.6-1.2,1.4-2.2,2.4-2.9c1-0.8,2.2-1.2,3.5-1.3c0.3-3.4,1-6.2,1.9-8.6
		c0.9-2.4,2.1-3.6,3.7-3.6c0.7,0,1.4,0.3,1.9,1c0.5,0.7,0.7,1.7,0.7,3.1c0,1.9-0.5,4.2-1.4,6.8c-1,2.6-2.2,5.3-3.8,8
		c0.1,1,0.2,1.7,0.5,2.2c0.2,0.4,0.5,0.7,0.9,0.7c0.5,0,0.9-0.2,1.4-0.6c0.5-0.4,1.1-1.1,2-2.1c0.2-0.2,0.4-0.4,0.7-0.4
		C137.9,31.5,138.1,31.6,138.2,31.8z M128.1,34.4c0.3-0.3,0.7-0.8,1.3-1.5c-0.2-0.9-0.3-2-0.3-3.2c0-0.4,0-1.1,0.1-2
		c-1,0.3-1.7,0.9-2.4,1.9c-0.6,1-1,2.1-1,3.3c0,1.3,0.4,1.9,1.3,1.9C127.5,34.8,127.8,34.7,128.1,34.4z M133.6,17.2
		c-0.3,1.2-0.6,2.7-0.8,4.6c-0.2,1.9-0.4,3.9-0.5,5.9c1.9-4.2,2.9-7.6,2.9-10.2c0-0.7-0.1-1.2-0.2-1.5s-0.2-0.5-0.4-0.5
		C134.3,15.4,134,16,133.6,17.2z"/>
	<path class="st0" d="M150.1,29.7c0.1,0.2,0.2,0.5,0.2,0.9c0,0.8-0.3,1.3-0.8,1.5c-1,0.4-2.2,0.6-3.4,0.6c-0.3,1.5-1,2.6-2,3.5
		c-1,0.9-2.1,1.3-3.3,1.3c-1,0-1.9-0.3-2.7-0.8c-0.7-0.5-1.3-1.2-1.7-2c-0.4-0.8-0.6-1.7-0.6-2.7c0-1.3,0.3-2.5,0.8-3.5
		c0.5-1,1.2-1.8,2.1-2.4c0.9-0.6,1.9-0.9,2.9-0.9c1.3,0,2.4,0.5,3.2,1.4c0.8,0.9,1.3,2,1.4,3.4c0.8-0.1,1.8-0.2,2.9-0.5
		c0.1,0,0.3-0.1,0.4-0.1C149.8,29.3,150,29.4,150.1,29.7z M142.5,34c0.4-0.5,0.7-1.1,0.8-2c-0.5-0.4-0.9-0.8-1.2-1.4
		c-0.3-0.6-0.4-1.2-0.4-1.9c0-0.3,0-0.6,0.1-0.8h-0.1c-0.7,0-1.3,0.3-1.7,1c-0.5,0.7-0.7,1.6-0.7,2.8c0,1,0.2,1.7,0.6,2.2
		c0.4,0.5,0.8,0.8,1.3,0.8C141.6,34.7,142.1,34.5,142.5,34z"/>
	<path class="st0" d="M148.5,36.4c-0.3-0.7-0.4-1.8-0.4-3.3c0-2.3,0.3-4.4,1-6.4c0.2-0.5,0.4-0.9,0.8-1.1c0.4-0.2,0.9-0.4,1.5-0.4
		c0.3,0,0.6,0,0.7,0.1c0.1,0.1,0.2,0.3,0.2,0.5c0,0.3-0.1,0.9-0.4,1.9c-0.2,0.7-0.3,1.3-0.4,1.8c-0.1,0.5-0.2,1.2-0.3,1.9
		c0.6-1.5,1.2-2.7,1.9-3.6c0.7-0.9,1.4-1.6,2.1-2c0.7-0.4,1.3-0.6,1.9-0.6c1.1,0,1.7,0.6,1.7,1.7c0,0.2-0.1,0.8-0.2,1.6
		c-0.1,0.7-0.2,1.1-0.2,1.3c0,0.6,0.2,0.9,0.7,0.9c0.5,0,1.1-0.4,1.9-1.1c0.2-0.2,0.5-0.3,0.7-0.3c0.2,0,0.4,0.1,0.5,0.3
		c0.1,0.2,0.2,0.5,0.2,0.8c0,0.6-0.2,1.1-0.5,1.5c-0.5,0.5-1.1,0.9-1.7,1.3c-0.7,0.4-1.3,0.5-2.1,0.5c-0.9,0-1.6-0.2-2.1-0.7
		c-0.5-0.5-0.7-1.1-0.7-1.9c0-0.3,0-0.5,0.1-0.8c0-0.3,0.1-0.6,0.1-0.7c0-0.3-0.1-0.4-0.3-0.4c-0.3,0-0.6,0.3-1,0.9
		c-0.4,0.6-0.8,1.4-1.3,2.3c-0.4,1-0.8,2-1,3c-0.2,0.8-0.4,1.4-0.7,1.7c-0.3,0.3-0.6,0.4-1.2,0.4C149.2,37.5,148.8,37.1,148.5,36.4z
		"/>
	<path class="st0" d="M160.5,36.3c-0.6-0.8-0.9-1.8-0.9-3.1c0-1.4,0.3-2.7,1-3.9c0.6-1.2,1.5-2.2,2.6-3c1.1-0.8,2.2-1.1,3.4-1.1
		c0.4,0,0.6,0.1,0.8,0.2c0.1,0.1,0.2,0.4,0.3,0.8c0.3-0.1,0.7-0.1,1.1-0.1c0.4,0,0.7,0.1,1,0.3c0.2,0.2,0.3,0.5,0.3,0.9
		c0,0.4-0.1,1.1-0.3,2.1c-0.2,1.1-0.3,2.1-0.4,3c-0.1,1-0.2,2-0.2,3.2c0,0.7-0.1,1.1-0.4,1.4c-0.3,0.3-0.7,0.4-1.3,0.4
		c-0.6,0-1-0.1-1.3-0.4c-0.3-0.3-0.4-0.8-0.4-1.4l0-0.4c-0.5,1.5-1.5,2.2-2.8,2.2C161.9,37.5,161.1,37.1,160.5,36.3z M165.2,33.8
		c0.4-0.7,0.8-1.9,1.1-3.6l0.5-2.6c-0.7,0-1.4,0.3-2,0.8s-1.1,1.2-1.5,2.1c-0.4,0.9-0.5,1.8-0.5,2.8c0,0.5,0.1,0.9,0.3,1.2
		c0.2,0.3,0.5,0.4,0.8,0.4C164.4,34.8,164.8,34.5,165.2,33.8z"/>
</g>
<g>
	<circle class="st1" cx="13.7" cy="38.5" r="6.6"/>
</g>
<g>
	<g>
		<path class="st0" d="M14.9,41.8l-0.2-0.2l-5.2-5.2l0-0.3c0-0.2,0.1-0.3,0.2-0.4l2-2l0.3,0c0.2,0,0.3,0.1,0.4,0.2l2.8,2.8l5.5-5.5
			l0.3,0c0.2,0,0.3,0.1,0.4,0.2l2,2l0,0.3c0,0.2-0.1,0.3-0.2,0.4l-7.7,7.7l-0.3,0H14.9z"/>
		<path class="st1" d="M20.9,31.7C21,31.7,21,31.8,20.9,31.7l1.9,1.8c0,0,0,0.1,0,0.1l-7.6,7.6c0,0,0,0-0.1,0s0,0-0.1,0l-5-5
			c0,0,0-0.1,0-0.1l1.8-1.8c0,0,0,0,0.1,0s0,0,0.1,0l3.1,3.1c0,0,0,0,0.1,0s0,0,0.1,0L20.9,31.7C20.9,31.8,20.9,31.7,20.9,31.7
			 M20.9,30.7c-0.3,0-0.6,0.1-0.8,0.3l-5,5l-2.4-2.4c-0.2-0.2-0.5-0.3-0.8-0.3c-0.3,0-0.6,0.1-0.8,0.3l-1.8,1.8
			C9,35.9,9,36.6,9.4,37l5,5c0.2,0.2,0.5,0.3,0.8,0.3c0.3,0,0.6-0.1,0.8-0.3l7.6-7.6c0.2-0.2,0.3-0.5,0.3-0.8c0-0.3-0.1-0.6-0.3-0.8
			l-1.8-1.8C21.5,30.9,21.2,30.7,20.9,30.7L20.9,30.7z"/>
	</g>
</g>
<g>
	<g>
		<path class="st0" d="M44.5,3.7V4c0.2-0.2,0.5-0.3,0.9-0.3h0.4c0.6,0,1.1,0.1,1.4,0.4s0.5,0.7,0.5,1.3v2c0,0.6-0.2,1.1-0.5,1.3
			s-0.8,0.4-1.4,0.4h-1.2v1.9h-0.9V3.7H44.5z M44.7,4.8c-0.1,0.1-0.2,0.3-0.2,0.4v3.2h1.3c0.3,0,0.5-0.1,0.6-0.2
			c0.1-0.1,0.2-0.3,0.2-0.5V5.3c0-0.2-0.1-0.4-0.2-0.5c-0.1-0.1-0.3-0.2-0.6-0.2h-0.6C45,4.6,44.8,4.6,44.7,4.8z"/>
		<path class="st0" d="M51.3,9C51.1,8.8,51,8.5,51,8.1V2.4h-1.6V1.5h2.6v6.5c0,0.1,0,0.2,0.1,0.3s0.2,0.1,0.3,0.1h1.5v0.8h-1.8
			C51.7,9.2,51.5,9.2,51.3,9z"/>
		<path class="st0" d="M58.8,9.2c-0.1-0.1-0.2-0.1-0.3-0.2c-0.2,0.2-0.4,0.3-0.7,0.3h-1c-0.6,0-1-0.1-1.2-0.3s-0.4-0.6-0.4-1.1V7.5
			c0-1.1,0.5-1.7,1.6-1.7h1.4V5.3c0-0.2-0.1-0.4-0.2-0.5c-0.1-0.1-0.3-0.2-0.6-0.2h-1.7V3.7h1.6c0.6,0,1.1,0.1,1.4,0.4
			c0.3,0.3,0.5,0.7,0.5,1.3v2.6c0,0.1,0,0.2,0.1,0.2s0.2,0.1,0.4,0.1v0.8h-0.6C59,9.2,58.9,9.2,58.8,9.2z M58.2,8.3
			c0.1-0.1,0.1-0.2,0.1-0.4V6.7h-1.4c-0.2,0-0.3,0.1-0.5,0.2c-0.1,0.1-0.2,0.3-0.2,0.5v0.5c0,0.2,0,0.3,0.1,0.4s0.2,0.1,0.4,0.1h1
			C58,8.4,58.1,8.4,58.2,8.3z"/>
		<path class="st0" d="M62.3,3.7V4c0.2-0.2,0.5-0.3,0.9-0.3h0.5c0.6,0,1,0.1,1.3,0.4c0.3,0.3,0.4,0.7,0.4,1.3v3.7h-0.9v-4
			c0-0.2-0.1-0.4-0.2-0.5S64,4.6,63.8,4.6h-0.7c-0.2,0-0.4,0.1-0.5,0.2c-0.1,0.1-0.2,0.3-0.2,0.4v4.1h-0.9V3.7H62.3z"/>
		<path class="st0" d="M67.3,4.6V3.7h2.6v4.7h1.6v0.8h-2.6V4.6H67.3z M69.9,1.5v1h-1v-1H69.9z"/>
		<path class="st0" d="M75,9c-0.2-0.2-0.3-0.5-0.3-0.8V2.4h-1.6V1.5h2.6v6.5c0,0.1,0,0.2,0.1,0.3s0.2,0.1,0.3,0.1h1.5v0.8h-1.8
			C75.4,9.2,75.2,9.2,75,9z"/>
		<path class="st0" d="M80.2,1.5V4c0.2-0.1,0.5-0.2,0.8-0.2h0.5c0.6,0,1,0.1,1.3,0.4c0.3,0.3,0.4,0.7,0.4,1.3v3.7h-0.9v-4
			c0-0.2-0.1-0.4-0.2-0.5s-0.3-0.2-0.5-0.2h-0.7c-0.2,0-0.4,0.1-0.5,0.2c-0.1,0.1-0.2,0.3-0.2,0.4v4.1h-0.9V1.5H80.2z"/>
		<path class="st0" d="M88.5,9.2c-0.1-0.1-0.2-0.1-0.3-0.2c-0.2,0.2-0.4,0.3-0.7,0.3h-1c-0.6,0-1-0.1-1.2-0.3S85,8.3,85,7.8V7.5
			c0-1.1,0.5-1.7,1.6-1.7h1.4V5.3c0-0.2-0.1-0.4-0.2-0.5c-0.1-0.1-0.3-0.2-0.6-0.2h-1.7V3.7H87c0.6,0,1.1,0.1,1.4,0.4
			c0.3,0.3,0.5,0.7,0.5,1.3v2.6c0,0.1,0,0.2,0.1,0.2s0.2,0.1,0.4,0.1v0.8h-0.6C88.7,9.2,88.6,9.2,88.5,9.2z M87.9,8.3
			c0.1-0.1,0.1-0.2,0.1-0.4V6.7h-1.4c-0.2,0-0.3,0.1-0.5,0.2C86,7,85.9,7.1,85.9,7.3v0.5c0,0.2,0,0.3,0.1,0.4s0.2,0.1,0.4,0.1h1
			C87.7,8.4,87.8,8.4,87.9,8.3z"/>
		<path class="st0" d="M92,8.8c-0.3-0.3-0.5-0.7-0.5-1.3v-2c0-0.6,0.2-1.1,0.5-1.3s0.8-0.4,1.4-0.4h1.4v0.8h-1.5
			c-0.3,0-0.5,0.1-0.6,0.2c-0.1,0.1-0.2,0.3-0.2,0.5v2.4c0,0.2,0.1,0.4,0.2,0.5c0.1,0.1,0.3,0.2,0.6,0.2h1.5v0.8h-1.4
			C92.7,9.2,92.3,9.1,92,8.8z"/>
		<path class="st0" d="M97.6,8.8c-0.3-0.3-0.5-0.7-0.5-1.3v-2c0-0.6,0.1-1.1,0.4-1.4c0.3-0.3,0.7-0.4,1.4-0.4h0.5
			c0.5,0,0.9,0.1,1.2,0.4s0.4,0.7,0.4,1.3v1.4h-2.9v0.8c0,0.2,0.1,0.4,0.2,0.5c0.1,0.1,0.3,0.2,0.6,0.2h1.7v0.8H99
			C98.4,9.2,97.9,9.1,97.6,8.8z M100.1,5.2c0-0.2-0.1-0.3-0.2-0.5c-0.1-0.1-0.3-0.2-0.5-0.2h-0.6c-0.3,0-0.4,0.1-0.6,0.2
			c-0.1,0.1-0.2,0.3-0.2,0.5v0.8h2V5.2z"/>
		<path class="st0" d="M106.3,8.9c-0.3,0.2-0.7,0.3-1.2,0.3h-1.6V8.4h1.7c0.2,0,0.3,0,0.5-0.1c0.1-0.1,0.2-0.2,0.2-0.4V7.3
			c0-0.3-0.2-0.5-0.5-0.5h-0.4c-0.5,0-0.9-0.1-1.1-0.3s-0.4-0.6-0.4-1.1V5.1c0-0.5,0.1-0.8,0.4-1.1c0.3-0.2,0.7-0.3,1.2-0.3h1.5v0.8
			h-1.6c-0.2,0-0.3,0-0.4,0.1c-0.1,0.1-0.2,0.2-0.2,0.4v0.4c0,0.2,0,0.3,0.1,0.4c0.1,0.1,0.2,0.1,0.4,0.1h0.4c0.5,0,0.9,0.1,1.1,0.4
			c0.3,0.2,0.4,0.6,0.4,1.1v0.5C106.7,8.3,106.6,8.7,106.3,8.9z"/>
		<path class="st0" d="M112.2,8.9c-0.3,0.2-0.7,0.3-1.2,0.3h-1.6V8.4h1.7c0.2,0,0.3,0,0.5-0.1c0.1-0.1,0.2-0.2,0.2-0.4V7.3
			c0-0.3-0.2-0.5-0.5-0.5h-0.4c-0.5,0-0.9-0.1-1.1-0.3s-0.4-0.6-0.4-1.1V5.1c0-0.5,0.1-0.8,0.4-1.1c0.3-0.2,0.7-0.3,1.2-0.3h1.5v0.8
			h-1.6c-0.2,0-0.3,0-0.4,0.1c-0.1,0.1-0.2,0.2-0.2,0.4v0.4c0,0.2,0,0.3,0.1,0.4c0.1,0.1,0.2,0.1,0.4,0.1h0.4c0.5,0,0.9,0.1,1.1,0.4
			c0.3,0.2,0.4,0.6,0.4,1.1v0.5C112.6,8.3,112.5,8.7,112.2,8.9z"/>
		<path class="st0" d="M114.8,4.6V3.7h2.6v4.7h1.6v0.8h-2.6V4.6H114.8z M117.4,1.5v1h-1v-1H117.4z"/>
		<path class="st0" d="M120.6,3.7h1l1.3,4.7l1.3-4.7h1l-1.6,5.5h-1.4L120.6,3.7z"/>
		<path class="st0" d="M127.3,8.8c-0.3-0.3-0.5-0.7-0.5-1.3v-2c0-0.6,0.1-1.1,0.4-1.4c0.3-0.3,0.7-0.4,1.4-0.4h0.5
			c0.5,0,0.9,0.1,1.2,0.4s0.4,0.7,0.4,1.3v1.4h-2.9v0.8c0,0.2,0.1,0.4,0.2,0.5c0.1,0.1,0.3,0.2,0.6,0.2h1.7v0.8h-1.6
			C128.1,9.2,127.6,9.1,127.3,8.8z M129.8,5.2c0-0.2-0.1-0.3-0.2-0.5c-0.1-0.1-0.3-0.2-0.5-0.2h-0.6c-0.3,0-0.4,0.1-0.6,0.2
			c-0.1,0.1-0.2,0.3-0.2,0.5v0.8h2V5.2z"/>
		<path class="st0" d="M134.4,9c-0.2-0.2-0.3-0.5-0.3-0.8V2.4h-1.6V1.5h2.6v6.5c0,0.1,0,0.2,0.1,0.3s0.2,0.1,0.3,0.1h1.5v0.8h-1.8
			C134.8,9.2,134.6,9.2,134.4,9z"/>
	</g>
</g>
<g>
	<g>
		<path class="st0" d="M85.5,50.1c0.1-0.1,0.1-0.1,0.1-0.2v-5.4H84v-0.8h2.6v6.2c0,0.4-0.1,0.7-0.3,0.9C86,50.9,85.8,51,85.4,51
			h-1.7v-0.8h1.6C85.4,50.2,85.5,50.2,85.5,50.1z M86.6,41.5v1h-1v-1H86.6z"/>
		<path class="st0" d="M91.3,49.2h-0.4c-0.6,0-1-0.1-1.3-0.4c-0.3-0.3-0.4-0.7-0.4-1.3v-3.7h0.9v4c0,0.2,0.1,0.4,0.2,0.5
			c0.1,0.1,0.3,0.2,0.5,0.2h0.6c0.2,0,0.4-0.1,0.5-0.2c0.1-0.1,0.2-0.2,0.2-0.4v-4.1H93v5.5h-0.9v-0.3
			C91.9,49.1,91.6,49.2,91.3,49.2z"/>
		<path class="st0" d="M96,48.3v-3.8h-0.8v-0.8h1.7V44c0.2-0.2,0.5-0.3,0.9-0.3h1.1v0.9h-1.2c-0.2,0-0.4,0.1-0.5,0.2
			c-0.1,0.2-0.2,0.3-0.2,0.5v3.1h1.2v0.8h-2.9v-0.8H96z"/>
		<path class="st0" d="M104.6,48.7c-0.3,0.3-0.8,0.4-1.4,0.4h-0.4c-0.6,0-1.1-0.1-1.4-0.4c-0.3-0.3-0.5-0.7-0.5-1.3v-2
			c0-0.6,0.2-1.1,0.5-1.3c0.3-0.3,0.8-0.4,1.4-0.4h0.4c0.6,0,1.1,0.1,1.4,0.4c0.3,0.3,0.5,0.7,0.5,1.3v2
			C105,48,104.9,48.5,104.6,48.7z M103.9,44.7c-0.1-0.1-0.3-0.2-0.6-0.2h-0.6c-0.3,0-0.5,0.1-0.6,0.2c-0.1,0.1-0.2,0.3-0.2,0.5v2.4
			c0,0.2,0.1,0.4,0.2,0.5c0.1,0.1,0.3,0.2,0.6,0.2h0.6c0.3,0,0.5-0.1,0.6-0.2c0.1-0.1,0.2-0.3,0.2-0.5v-2.4
			C104.1,45,104,44.8,103.9,44.7z"/>
		<path class="st0" d="M110.2,48.8c-0.3,0.2-0.7,0.3-1.2,0.3h-1.6v-0.8h1.7c0.2,0,0.3,0,0.5-0.1c0.1-0.1,0.2-0.2,0.2-0.4v-0.6
			c0-0.3-0.2-0.5-0.5-0.5h-0.4c-0.5,0-0.9-0.1-1.1-0.3s-0.4-0.6-0.4-1.1V45c0-0.5,0.1-0.8,0.4-1.1s0.7-0.3,1.2-0.3h1.5v0.8h-1.6
			c-0.2,0-0.3,0-0.4,0.1c-0.1,0.1-0.2,0.2-0.2,0.4v0.4c0,0.2,0,0.3,0.1,0.4c0.1,0.1,0.2,0.1,0.4,0.1h0.4c0.5,0,0.9,0.1,1.1,0.4
			c0.3,0.2,0.4,0.6,0.4,1.1v0.5C110.6,48.2,110.4,48.6,110.2,48.8z"/>
		<path class="st0" d="M119.6,48.7c-0.3-0.3-0.5-0.7-0.5-1.3v-2c0-0.6,0.2-1.1,0.5-1.3s0.8-0.4,1.4-0.4h1.4v0.8h-1.5
			c-0.3,0-0.5,0.1-0.6,0.2c-0.1,0.1-0.2,0.3-0.2,0.5v2.4c0,0.2,0.1,0.4,0.2,0.5c0.1,0.1,0.3,0.2,0.6,0.2h1.5v0.8H121
			C120.4,49.2,119.9,49,119.6,48.7z"/>
		<path class="st0" d="M128.3,48.7c-0.3,0.3-0.8,0.4-1.4,0.4h-0.4c-0.6,0-1.1-0.1-1.4-0.4c-0.3-0.3-0.5-0.7-0.5-1.3v-2
			c0-0.6,0.2-1.1,0.5-1.3c0.3-0.3,0.8-0.4,1.4-0.4h0.4c0.6,0,1.1,0.1,1.4,0.4c0.3,0.3,0.5,0.7,0.5,1.3v2
			C128.8,48,128.6,48.5,128.3,48.7z M127.6,44.7c-0.1-0.1-0.3-0.2-0.6-0.2h-0.6c-0.3,0-0.5,0.1-0.6,0.2c-0.1,0.1-0.2,0.3-0.2,0.5
			v2.4c0,0.2,0.1,0.4,0.2,0.5c0.1,0.1,0.3,0.2,0.6,0.2h0.6c0.3,0,0.5-0.1,0.6-0.2c0.1-0.1,0.2-0.3,0.2-0.5v-2.4
			C127.8,45,127.8,44.8,127.6,44.7z"/>
		<path class="st0" d="M131,43.7v0.3c0.2-0.2,0.4-0.3,0.7-0.3h0.1c0.5,0,0.9,0.1,1.1,0.4c0.2-0.3,0.6-0.4,1-0.4h0.1
			c0.4,0,0.8,0.1,1,0.3c0.2,0.2,0.3,0.6,0.3,1.2v3.9h-0.9v-4c0-0.3,0-0.5-0.1-0.6s-0.2-0.2-0.4-0.2h-0.1c-0.2,0-0.4,0.1-0.5,0.2
			c-0.1,0.2-0.1,0.3-0.1,0.5v4h-0.9v-4c0-0.3,0-0.5-0.1-0.6s-0.2-0.2-0.4-0.2h-0.1c-0.2,0-0.4,0.1-0.5,0.2s-0.1,0.3-0.1,0.4v4.1
			h-0.9v-5.5H131z"/>
		<path class="st0" d="M137.5,43.7v0.3c0.2-0.2,0.5-0.3,0.9-0.3h0.4c0.6,0,1.1,0.1,1.4,0.4s0.5,0.7,0.5,1.3v2c0,0.6-0.2,1.1-0.5,1.3
			s-0.8,0.4-1.4,0.4h-1.2V51h-0.9v-7.4H137.5z M137.7,44.7c-0.1,0.1-0.2,0.3-0.2,0.4v3.2h1.3c0.3,0,0.5-0.1,0.6-0.2
			c0.1-0.1,0.2-0.3,0.2-0.5v-2.4c0-0.2-0.1-0.4-0.2-0.5c-0.1-0.1-0.3-0.2-0.6-0.2h-0.6C138,44.5,137.8,44.5,137.7,44.7z"/>
		<path class="st0" d="M146.1,48.7c-0.3,0.3-0.8,0.4-1.4,0.4h-0.4c-0.6,0-1.1-0.1-1.4-0.4c-0.3-0.3-0.5-0.7-0.5-1.3v-2
			c0-0.6,0.2-1.1,0.5-1.3c0.3-0.3,0.8-0.4,1.4-0.4h0.4c0.6,0,1.1,0.1,1.4,0.4c0.3,0.3,0.5,0.7,0.5,1.3v2
			C146.6,48,146.4,48.5,146.1,48.7z M145.5,44.7c-0.1-0.1-0.3-0.2-0.6-0.2h-0.6c-0.3,0-0.5,0.1-0.6,0.2c-0.1,0.1-0.2,0.3-0.2,0.5
			v2.4c0,0.2,0.1,0.4,0.2,0.5c0.1,0.1,0.3,0.2,0.6,0.2h0.6c0.3,0,0.5-0.1,0.6-0.2c0.1-0.1,0.2-0.3,0.2-0.5v-2.4
			C145.7,45,145.6,44.8,145.5,44.7z"/>
		<path class="st0" d="M151.7,48.8c-0.3,0.2-0.7,0.3-1.2,0.3h-1.6v-0.8h1.7c0.2,0,0.3,0,0.5-0.1c0.1-0.1,0.2-0.2,0.2-0.4v-0.6
			c0-0.3-0.2-0.5-0.5-0.5h-0.4c-0.5,0-0.9-0.1-1.1-0.3s-0.4-0.6-0.4-1.1V45c0-0.5,0.1-0.8,0.4-1.1s0.7-0.3,1.2-0.3h1.5v0.8h-1.6
			c-0.2,0-0.3,0-0.4,0.1c-0.1,0.1-0.2,0.2-0.2,0.4v0.4c0,0.2,0,0.3,0.1,0.4c0.1,0.1,0.2,0.1,0.4,0.1h0.4c0.5,0,0.9,0.1,1.1,0.4
			c0.3,0.2,0.4,0.6,0.4,1.1v0.5C152.2,48.2,152,48.6,151.7,48.8z"/>
		<path class="st0" d="M156,48.8c-0.2-0.2-0.3-0.6-0.3-1v-3.4h-1v-0.8h1v-1.3h0.9v1.3h1.6v0.8h-1.6v3.4c0,0.2,0,0.3,0.1,0.3
			c0.1,0.1,0.2,0.1,0.4,0.1h1.1v0.8h-1.4C156.5,49.2,156.2,49,156,48.8z"/>
		<path class="st0" d="M164,48.7c-0.3,0.3-0.8,0.4-1.4,0.4h-0.4c-0.6,0-1.1-0.1-1.4-0.4c-0.3-0.3-0.5-0.7-0.5-1.3v-2
			c0-0.6,0.2-1.1,0.5-1.3c0.3-0.3,0.8-0.4,1.4-0.4h0.4c0.6,0,1.1,0.1,1.4,0.4c0.3,0.3,0.5,0.7,0.5,1.3v2
			C164.4,48,164.3,48.5,164,48.7z M163.3,44.7c-0.1-0.1-0.3-0.2-0.6-0.2h-0.6c-0.3,0-0.5,0.1-0.6,0.2c-0.1,0.1-0.2,0.3-0.2,0.5v2.4
			c0,0.2,0.1,0.4,0.2,0.5c0.1,0.1,0.3,0.2,0.6,0.2h0.6c0.3,0,0.5-0.1,0.6-0.2c0.1-0.1,0.2-0.3,0.2-0.5v-2.4
			C163.5,45,163.4,44.8,163.3,44.7z"/>
		<path class="st0" d="M169.6,48.8c-0.3,0.2-0.7,0.3-1.2,0.3h-1.6v-0.8h1.7c0.2,0,0.3,0,0.5-0.1c0.1-0.1,0.2-0.2,0.2-0.4v-0.6
			c0-0.3-0.2-0.5-0.5-0.5h-0.4c-0.5,0-0.9-0.1-1.1-0.3s-0.4-0.6-0.4-1.1V45c0-0.5,0.1-0.8,0.4-1.1s0.7-0.3,1.2-0.3h1.5v0.8h-1.6
			c-0.2,0-0.3,0-0.4,0.1c-0.1,0.1-0.2,0.2-0.2,0.4v0.4c0,0.2,0,0.3,0.1,0.4c0.1,0.1,0.2,0.1,0.4,0.1h0.4c0.5,0,0.9,0.1,1.1,0.4
			c0.3,0.2,0.4,0.6,0.4,1.1v0.5C170,48.2,169.8,48.6,169.6,48.8z"/>
	</g>
</g>
<path class="st1" d="M30.4,12.3H6.3c-0.2,0-0.4-0.2-0.4-0.4V6.6c0-0.2,0.2-0.4,0.4-0.4h24.1c0.2,0,0.4,0.2,0.4,0.4v5.3
	C30.8,12.1,30.6,12.3,30.4,12.3z"/>
</svg>
