<?xml version="1.0" encoding="utf-8"?>
<!-- Generator: Adobe Illustrator 22.1.0, SVG Export Plug-In . SVG Version: 6.00 Build 0)  -->
<svg version="1.1" id="Camada_1" xmlns="http://www.w3.org/2000/svg" xmlns:xlink="http://www.w3.org/1999/xlink" x="0px" y="0px"
	 viewBox="0 0 204.5 52.2" style="enable-background:new 0 0 204.5 52.2;" xml:space="preserve">
<style type="text/css">
	.st0{fill:#1A1A1A;}
	.st1{fill:#FFFFFF;}
</style>
<path class="st0" d="M35.6,5.1v45.7c0,0.2-0.2,0.4-0.4,0.4H11.7c-5.9,0-10.6-4.8-10.6-10.6V5.1c0-2.2,1.8-3.9,3.9-3.9h26.7
	C33.9,1.2,35.6,2.9,35.6,5.1z"/>
<g>
	<circle class="st1" cx="13.7" cy="38.5" r="6.6"/>
</g>
<g>
	<g>
		<path class="st0" d="M14.9,41.8l-0.2-0.2l-5.2-5.2v-0.3c0-0.2,0.1-0.3,0.2-0.4l2-2H12c0.2,0,0.3,0.1,0.4,0.2l2.8,2.8l5.5-5.5H21
			c0.2,0,0.3,0.1,0.4,0.2l2,2v0.3c0,0.2-0.1,0.3-0.2,0.4l-7.7,7.7h-0.3H14.9z"/>
		<path class="st1" d="M20.9,31.7C21,31.7,21,31.8,20.9,31.7l1.9,1.8v0.1l-7.6,7.6c0,0,0,0-0.1,0s0,0-0.1,0l-5-5v-0.1l1.8-1.8
			c0,0,0,0,0.1,0s0,0,0.1,0l3.1,3.1c0,0,0,0,0.1,0s0,0,0.1,0L20.9,31.7C20.9,31.8,20.9,31.7,20.9,31.7 M20.9,30.7
			c-0.3,0-0.6,0.1-0.8,0.3l-5,5l-2.4-2.4c-0.2-0.2-0.5-0.3-0.8-0.3s-0.6,0.1-0.8,0.3l-1.8,1.8C9,35.9,9,36.6,9.4,37l5,5
			c0.2,0.2,0.5,0.3,0.8,0.3s0.6-0.1,0.8-0.3l7.6-7.6c0.2-0.2,0.3-0.5,0.3-0.8s-0.1-0.6-0.3-0.8L21.8,31
			C21.5,30.9,21.2,30.7,20.9,30.7L20.9,30.7z"/>
	</g>
</g>
<path class="st1" d="M30.4,12.3H6.3c-0.2,0-0.4-0.2-0.4-0.4V6.6c0-0.2,0.2-0.4,0.4-0.4h24.1c0.2,0,0.4,0.2,0.4,0.4v5.3
	C30.8,12.1,30.6,12.3,30.4,12.3z"/>
<g>
	<path class="st0" d="M62.6,19.5c-0.1,0.7-0.3,1.4-0.6,2c-0.3,0.6-0.6,1.1-1.1,1.5s-1,0.8-1.6,1c-0.6,0.2-1.3,0.4-2,0.4
		c-0.6,0-1.2-0.1-1.7-0.3c-0.5-0.2-1-0.4-1.4-0.8c-0.4-0.3-0.8-0.7-1.1-1.1c-0.3-0.4-0.5-0.9-0.7-1.4c-0.2-0.5-0.3-1-0.4-1.6
		c-0.1-0.6-0.1-1.1-0.2-1.7v-2.2c0-0.6,0.1-1.1,0.2-1.7c0.1-0.6,0.2-1.1,0.4-1.6c0.2-0.5,0.4-1,0.7-1.4c0.3-0.4,0.6-0.8,1.1-1.1
		c0.4-0.3,0.9-0.6,1.4-0.8c0.5-0.2,1.1-0.3,1.7-0.3c0.8,0,1.5,0.1,2.1,0.4c0.6,0.2,1.1,0.6,1.6,1c0.4,0.4,0.8,1,1.1,1.6
		c0.3,0.6,0.4,1.3,0.5,2h-2c-0.1-0.5-0.2-0.9-0.3-1.3s-0.4-0.8-0.6-1.1s-0.6-0.5-1-0.7c-0.4-0.2-0.8-0.3-1.3-0.3
		c-0.5,0-0.9,0.1-1.2,0.2c-0.4,0.2-0.7,0.4-0.9,0.6s-0.5,0.6-0.6,0.9c-0.2,0.3-0.3,0.7-0.4,1.1c-0.1,0.4-0.2,0.8-0.2,1.2
		c0,0.4-0.1,0.8-0.1,1.2v2.2c0,0.4,0,0.8,0.1,1.2c0,0.4,0.1,0.8,0.2,1.2c0.1,0.4,0.2,0.8,0.4,1.1c0.2,0.3,0.4,0.7,0.6,0.9
		s0.6,0.5,0.9,0.6c0.4,0.2,0.8,0.2,1.2,0.2c0.5,0,1-0.1,1.3-0.2c0.4-0.2,0.7-0.4,1-0.7c0.3-0.3,0.5-0.6,0.6-1
		c0.2-0.4,0.3-0.8,0.3-1.3H62.6z"/>
	<path class="st0" d="M73.2,24.2c-0.1-0.1-0.1-0.3-0.2-0.6s-0.1-0.5-0.1-0.7c-0.2,0.2-0.4,0.4-0.7,0.6c-0.2,0.2-0.5,0.3-0.8,0.5
		c-0.3,0.1-0.6,0.2-0.9,0.3c-0.3,0.1-0.7,0.1-1.1,0.1c-0.6,0-1.2-0.1-1.7-0.3s-0.9-0.4-1.3-0.7c-0.3-0.3-0.6-0.7-0.8-1.1
		s-0.3-0.9-0.3-1.3c0-0.6,0.1-1.2,0.4-1.7c0.3-0.5,0.6-0.9,1.1-1.2c0.5-0.3,1-0.6,1.7-0.7s1.4-0.2,2.2-0.2h2.2v-0.9
		c0-0.3-0.1-0.7-0.2-0.9s-0.3-0.5-0.5-0.7s-0.5-0.3-0.9-0.5S70.6,14,70.2,14c-0.4,0-0.7,0-1,0.1c-0.3,0.1-0.6,0.2-0.8,0.4
		c-0.2,0.2-0.4,0.4-0.5,0.6s-0.2,0.5-0.2,0.7h-2c0-0.4,0.1-0.8,0.3-1.2c0.2-0.4,0.5-0.8,0.9-1.1c0.4-0.3,0.9-0.6,1.4-0.8
		c0.6-0.2,1.2-0.3,1.9-0.3c0.7,0,1.3,0.1,1.8,0.2s1,0.4,1.5,0.7s0.7,0.7,1,1.2s0.4,1,0.4,1.7v5.4c0,0.4,0,0.8,0.1,1.2
		s0.2,0.8,0.3,1.1v0.2H73.2z M69.7,22.7c0.4,0,0.7,0,1.1-0.1c0.3-0.1,0.6-0.2,0.9-0.4c0.3-0.2,0.5-0.4,0.7-0.6
		c0.2-0.2,0.4-0.4,0.5-0.7v-2.3h-1.8c-1.2,0-2,0.2-2.7,0.5c-0.6,0.3-1,0.9-1,1.6c0,0.3,0,0.5,0.1,0.8c0.1,0.2,0.2,0.4,0.4,0.6
		c0.2,0.2,0.4,0.3,0.7,0.4S69.4,22.7,69.7,22.7z"/>
	<path class="st0" d="M79.1,7.8h5.9v14.7h3.8v1.7h-9.7v-1.7H83V9.5h-3.9V7.8z"/>
	<path class="st0" d="M96.7,22.8c0.4,0,0.7-0.1,1-0.2c0.3-0.1,0.6-0.3,0.9-0.5c0.3-0.2,0.5-0.4,0.6-0.7c0.2-0.3,0.2-0.6,0.3-0.9h1.9
		c0,0.5-0.1,1-0.4,1.5c-0.3,0.5-0.6,0.9-1,1.2c-0.4,0.4-0.9,0.6-1.5,0.8c-0.6,0.2-1.1,0.3-1.8,0.3c-0.9,0-1.6-0.2-2.3-0.5
		c-0.7-0.3-1.2-0.7-1.6-1.3c-0.4-0.5-0.8-1.1-1-1.8c-0.2-0.7-0.3-1.4-0.3-2.2v-0.4c0-0.8,0.1-1.5,0.3-2.2c0.2-0.7,0.5-1.3,1-1.8
		c0.4-0.5,1-0.9,1.6-1.3s1.4-0.5,2.3-0.5c0.7,0,1.3,0.1,1.9,0.3c0.6,0.2,1.1,0.5,1.5,0.9c0.4,0.4,0.7,0.8,1,1.3s0.4,1.1,0.4,1.6
		h-1.9c0-0.3-0.1-0.7-0.2-1c-0.1-0.3-0.3-0.6-0.6-0.8s-0.5-0.4-0.9-0.6c-0.3-0.1-0.7-0.2-1.1-0.2c-0.6,0-1.1,0.1-1.5,0.4
		s-0.8,0.6-1,1c-0.3,0.4-0.4,0.8-0.5,1.3c-0.1,0.5-0.2,1-0.2,1.5v0.4c0,0.5,0.1,1,0.2,1.5c0.1,0.5,0.3,0.9,0.5,1.3
		c0.3,0.4,0.6,0.7,1,1C95.6,22.7,96.1,22.8,96.7,22.8z"/>
	<path class="st0" d="M112.4,22.6c-0.4,0.6-0.9,1-1.4,1.3c-0.6,0.3-1.2,0.5-2,0.5c-0.6,0-1.2-0.1-1.6-0.3c-0.5-0.2-0.9-0.5-1.3-0.9
		c-0.3-0.4-0.6-0.9-0.8-1.5c-0.2-0.6-0.3-1.4-0.3-2.2v-6.8h2v6.9c0,0.6,0,1.1,0.1,1.6c0.1,0.4,0.2,0.7,0.4,1s0.4,0.4,0.7,0.5
		s0.6,0.1,1,0.1c0.8,0,1.5-0.2,1.9-0.5s0.9-0.8,1.1-1.3v-8.3h2v11.5h-1.8L112.4,22.6z"/>
	<path class="st0" d="M118.3,7.8h5.9v14.7h3.8v1.7h-9.7v-1.7h3.9V9.5h-3.9V7.8z"/>
	<path class="st0" d="M138.7,24.2c-0.1-0.1-0.1-0.3-0.2-0.6s-0.1-0.5-0.1-0.7c-0.2,0.2-0.4,0.4-0.7,0.6c-0.2,0.2-0.5,0.3-0.8,0.5
		c-0.3,0.1-0.6,0.2-0.9,0.3c-0.3,0.1-0.7,0.1-1.1,0.1c-0.6,0-1.2-0.1-1.7-0.3s-0.9-0.4-1.3-0.7c-0.3-0.3-0.6-0.7-0.8-1.1
		s-0.3-0.9-0.3-1.3c0-0.6,0.1-1.2,0.4-1.7c0.3-0.5,0.6-0.9,1.1-1.2c0.5-0.3,1-0.6,1.7-0.7s1.4-0.2,2.2-0.2h2.2v-0.9
		c0-0.3-0.1-0.7-0.2-0.9c-0.1-0.3-0.3-0.5-0.5-0.7s-0.5-0.3-0.9-0.5s-0.7-0.2-1.1-0.2c-0.4,0-0.7,0-1,0.1c-0.3,0.1-0.6,0.2-0.8,0.4
		c-0.2,0.2-0.4,0.4-0.5,0.6s-0.2,0.5-0.2,0.7h-2c0-0.4,0.1-0.8,0.3-1.2c0.2-0.4,0.5-0.8,0.9-1.1c0.4-0.3,0.9-0.6,1.4-0.8
		c0.6-0.2,1.2-0.3,1.9-0.3c0.7,0,1.3,0.1,1.8,0.2c0.6,0.2,1,0.4,1.5,0.7c0.4,0.3,0.7,0.7,1,1.2s0.4,1,0.4,1.7v5.4
		c0,0.4,0,0.8,0.1,1.2c0.1,0.4,0.2,0.8,0.3,1.1v0.2H138.7z M135.2,22.7c0.4,0,0.7,0,1.1-0.1s0.6-0.2,0.9-0.4
		c0.3-0.2,0.5-0.4,0.7-0.6c0.2-0.2,0.4-0.4,0.5-0.7v-2.3h-1.8c-1.2,0-2,0.2-2.7,0.5c-0.6,0.3-1,0.9-1,1.6c0,0.3,0,0.5,0.1,0.8
		c0.1,0.2,0.2,0.4,0.4,0.6c0.2,0.2,0.4,0.3,0.7,0.4S134.8,22.7,135.2,22.7z"/>
	<path class="st0" d="M143.8,18.3c0-0.9,0.1-1.6,0.3-2.4s0.5-1.3,0.9-1.9c0.4-0.5,0.9-0.9,1.5-1.2c0.6-0.3,1.2-0.4,1.9-0.4
		c0.7,0,1.3,0.1,1.8,0.3c0.5,0.2,1,0.6,1.3,1v-6h2v16.4h-1.8l-0.1-1.2c-0.4,0.5-0.8,0.8-1.4,1.1c-0.5,0.2-1.2,0.4-1.9,0.4
		c-0.7,0-1.3-0.1-1.9-0.4s-1-0.7-1.4-1.2s-0.7-1.1-0.9-1.9c-0.2-0.7-0.3-1.5-0.3-2.3V18.3z M145.8,18.5c0,0.6,0.1,1.1,0.2,1.6
		c0.1,0.5,0.3,0.9,0.6,1.3s0.6,0.7,1,0.9s0.9,0.3,1.4,0.3c0.3,0,0.6,0,0.9-0.1c0.3-0.1,0.5-0.2,0.7-0.3c0.2-0.1,0.4-0.3,0.6-0.5
		c0.2-0.2,0.3-0.4,0.4-0.7v-5.3c-0.3-0.5-0.6-0.9-1-1.2c-0.4-0.3-1-0.5-1.6-0.5c-0.6,0-1,0.1-1.4,0.3c-0.4,0.2-0.7,0.5-1,0.9
		c-0.3,0.4-0.4,0.8-0.6,1.3c-0.1,0.5-0.2,1-0.2,1.6V18.5z"/>
	<path class="st0" d="M156.7,18.3c0-0.8,0.1-1.6,0.4-2.3c0.2-0.7,0.6-1.3,1-1.9s1-0.9,1.6-1.2c0.6-0.3,1.4-0.5,2.2-0.5
		c0.8,0,1.5,0.2,2.2,0.5c0.6,0.3,1.2,0.7,1.7,1.2s0.8,1.1,1,1.9c0.2,0.7,0.4,1.5,0.4,2.3v0.2c0,0.8-0.1,1.6-0.4,2.3
		c-0.2,0.7-0.6,1.3-1,1.9s-1,0.9-1.6,1.2s-1.4,0.4-2.2,0.4c-0.8,0-1.5-0.1-2.2-0.4c-0.7-0.3-1.2-0.7-1.7-1.2s-0.8-1.1-1-1.9
		c-0.2-0.7-0.4-1.5-0.4-2.3V18.3z M158.7,18.5c0,0.6,0.1,1.1,0.2,1.6s0.3,1,0.6,1.4c0.3,0.4,0.6,0.7,1,0.9c0.4,0.2,0.9,0.3,1.4,0.3
		c0.5,0,1-0.1,1.4-0.3c0.4-0.2,0.7-0.5,1-0.9c0.3-0.4,0.5-0.8,0.6-1.4s0.2-1.1,0.2-1.6v-0.2c0-0.6-0.1-1.1-0.2-1.6
		c-0.1-0.5-0.3-1-0.6-1.4s-0.6-0.7-1-0.9c-0.4-0.2-0.9-0.3-1.4-0.3s-1,0.1-1.4,0.3c-0.4,0.2-0.7,0.5-1,0.9s-0.5,0.8-0.6,1.4
		c-0.1,0.5-0.2,1.1-0.2,1.6V18.5z"/>
	<path class="st0" d="M177.9,12.4c0.2,0,0.4,0,0.6,0s0.4,0,0.6,0.1c0.2,0,0.3,0.1,0.5,0.1c0.2,0,0.3,0.1,0.4,0.1l-0.3,1.9
		c-0.4-0.1-0.7-0.1-1.1-0.2c-0.3,0-0.7-0.1-1.1-0.1c-0.9,0-1.7,0.2-2.2,0.6c-0.6,0.4-1,1-1.3,1.8v7.4h-2V12.6h1.9l0.1,1.8
		c0.5-0.6,1-1.1,1.7-1.5S177.1,12.4,177.9,12.4z"/>
	<path class="st0" d="M191,24.2c-0.1-0.1-0.1-0.3-0.2-0.6s-0.1-0.5-0.1-0.7c-0.2,0.2-0.4,0.4-0.7,0.6c-0.2,0.2-0.5,0.3-0.8,0.5
		c-0.3,0.1-0.6,0.2-0.9,0.3c-0.3,0.1-0.7,0.1-1.1,0.1c-0.6,0-1.2-0.1-1.7-0.3c-0.5-0.2-0.9-0.4-1.3-0.7c-0.3-0.3-0.6-0.7-0.8-1.1
		c-0.2-0.4-0.3-0.9-0.3-1.3c0-0.6,0.1-1.2,0.4-1.7c0.3-0.5,0.6-0.9,1.1-1.2c0.5-0.3,1-0.6,1.7-0.7s1.4-0.2,2.2-0.2h2.2v-0.9
		c0-0.3-0.1-0.7-0.2-0.9c-0.1-0.3-0.3-0.5-0.5-0.7s-0.5-0.3-0.9-0.5S188.4,14,188,14c-0.4,0-0.7,0-1,0.1c-0.3,0.1-0.6,0.2-0.8,0.4
		c-0.2,0.2-0.4,0.4-0.5,0.6s-0.2,0.5-0.2,0.7h-2c0-0.4,0.1-0.8,0.3-1.2c0.2-0.4,0.5-0.8,0.9-1.1c0.4-0.3,0.9-0.6,1.4-0.8
		s1.2-0.3,1.9-0.3c0.7,0,1.3,0.1,1.8,0.2c0.6,0.2,1,0.4,1.5,0.7c0.4,0.3,0.7,0.7,1,1.2s0.4,1,0.4,1.7v5.4c0,0.4,0,0.8,0.1,1.2
		c0.1,0.4,0.2,0.8,0.3,1.1v0.2H191z M187.6,22.7c0.4,0,0.7,0,1.1-0.1s0.6-0.2,0.9-0.4c0.3-0.2,0.5-0.4,0.7-0.6
		c0.2-0.2,0.4-0.4,0.5-0.7v-2.3h-1.8c-1.2,0-2,0.2-2.7,0.5c-0.6,0.3-1,0.9-1,1.6c0,0.3,0,0.5,0.1,0.8c0.1,0.2,0.2,0.4,0.4,0.6
		c0.2,0.2,0.4,0.3,0.7,0.4S187.2,22.7,187.6,22.7z"/>
	<path class="st0" d="M60,40.2h-5.2l-1.2,4h-2l5-15.5h1.7l4.9,15.5h-2L60,40.2z M55.3,38.4h4.1l-2-6.7L55.3,38.4z"/>
	<path class="st0" d="M70.6,42.8c0.4,0,0.7-0.1,1-0.2c0.3-0.1,0.6-0.3,0.9-0.5s0.5-0.4,0.6-0.7c0.2-0.3,0.2-0.6,0.3-0.9h1.9
		c0,0.5-0.1,1-0.4,1.5c-0.3,0.5-0.6,0.9-1,1.2c-0.4,0.4-0.9,0.6-1.5,0.8c-0.6,0.2-1.1,0.3-1.8,0.3c-0.9,0-1.6-0.2-2.3-0.5
		s-1.2-0.7-1.6-1.3c-0.4-0.5-0.8-1.1-1-1.8c-0.2-0.7-0.3-1.4-0.3-2.2v-0.4c0-0.8,0.1-1.5,0.3-2.2c0.2-0.7,0.5-1.3,1-1.8
		c0.4-0.5,1-1,1.6-1.3s1.4-0.5,2.3-0.5c0.7,0,1.3,0.1,1.9,0.3c0.6,0.2,1.1,0.5,1.5,0.9s0.7,0.8,1,1.3c0.2,0.5,0.4,1.1,0.4,1.6h-1.9
		c0-0.3-0.1-0.7-0.2-1s-0.3-0.6-0.6-0.8c-0.2-0.2-0.5-0.4-0.9-0.6c-0.3-0.1-0.7-0.2-1.1-0.2c-0.6,0-1.1,0.1-1.5,0.4
		c-0.4,0.2-0.8,0.6-1,1c-0.3,0.4-0.4,0.8-0.5,1.3c-0.1,0.5-0.2,1-0.2,1.5v0.4c0,0.5,0.1,1,0.2,1.5c0.1,0.5,0.3,0.9,0.5,1.3
		c0.3,0.4,0.6,0.7,1,1S69.9,42.8,70.6,42.8z"/>
	<path class="st0" d="M83.8,44.4c-0.8,0-1.6-0.1-2.2-0.4c-0.7-0.3-1.3-0.7-1.7-1.2S79,41.7,78.7,41c-0.3-0.7-0.4-1.4-0.4-2.2v-0.4
		c0-0.9,0.1-1.8,0.4-2.5c0.3-0.7,0.7-1.4,1.2-1.9c0.5-0.5,1.1-0.9,1.7-1.2c0.6-0.3,1.3-0.4,1.9-0.4c0.8,0,1.6,0.1,2.2,0.4
		c0.6,0.3,1.1,0.7,1.5,1.2c0.4,0.5,0.7,1.1,0.9,1.8c0.2,0.7,0.3,1.4,0.3,2.2V39h-8.2c0,0.5,0.1,1,0.3,1.5c0.2,0.5,0.4,0.9,0.7,1.2
		c0.3,0.3,0.7,0.6,1.1,0.8c0.4,0.2,0.9,0.3,1.5,0.3c0.7,0,1.3-0.1,1.9-0.4c0.5-0.3,1-0.7,1.4-1.1l1.2,0.9c-0.2,0.3-0.4,0.6-0.7,0.8
		c-0.3,0.3-0.6,0.5-1,0.7c-0.4,0.2-0.8,0.4-1.3,0.5S84.4,44.4,83.8,44.4z M83.6,34.1c-0.4,0-0.8,0.1-1.1,0.2s-0.7,0.4-1,0.6
		c-0.3,0.3-0.5,0.6-0.7,1s-0.3,0.9-0.4,1.4h6.2v-0.1c0-0.4-0.1-0.8-0.2-1.1c-0.1-0.4-0.3-0.7-0.5-1c-0.2-0.3-0.5-0.5-0.9-0.7
		S84.1,34.1,83.6,34.1z"/>
	<path class="st0" d="M99.5,41.1c0-0.2,0-0.4-0.1-0.6c-0.1-0.2-0.2-0.4-0.5-0.5s-0.5-0.3-0.9-0.4s-0.8-0.3-1.4-0.4
		c-0.7-0.1-1.3-0.3-1.8-0.5c-0.5-0.2-1-0.4-1.4-0.7c-0.4-0.3-0.7-0.6-0.9-0.9c-0.2-0.4-0.3-0.8-0.3-1.3c0-0.5,0.1-0.9,0.3-1.3
		s0.5-0.8,0.9-1.1c0.4-0.3,0.9-0.5,1.4-0.7s1.2-0.3,1.8-0.3c0.7,0,1.3,0.1,1.9,0.3c0.6,0.2,1.1,0.4,1.4,0.8c0.4,0.3,0.7,0.7,0.9,1.1
		c0.2,0.4,0.3,0.9,0.3,1.4h-2c0-0.2-0.1-0.5-0.2-0.7c-0.1-0.2-0.3-0.4-0.5-0.6c-0.2-0.2-0.5-0.3-0.8-0.4c-0.3-0.1-0.7-0.2-1.1-0.2
		c-0.4,0-0.8,0-1.1,0.1c-0.3,0.1-0.6,0.2-0.8,0.4s-0.4,0.3-0.5,0.5c-0.1,0.2-0.2,0.4-0.2,0.6c0,0.2,0,0.4,0.1,0.6
		c0.1,0.2,0.2,0.3,0.4,0.5s0.5,0.3,0.8,0.4c0.4,0.1,0.8,0.2,1.3,0.3c0.7,0.1,1.3,0.3,1.9,0.5s1,0.4,1.4,0.7c0.4,0.3,0.7,0.6,0.9,1
		c0.2,0.4,0.3,0.8,0.3,1.3c0,0.5-0.1,1-0.3,1.4s-0.6,0.8-1,1.1c-0.4,0.3-0.9,0.5-1.5,0.7s-1.2,0.2-1.9,0.2c-0.8,0-1.5-0.1-2.1-0.3
		c-0.6-0.2-1.1-0.5-1.5-0.8c-0.4-0.3-0.7-0.7-1-1.2c-0.2-0.5-0.3-0.9-0.3-1.4h2c0,0.4,0.1,0.7,0.3,1c0.2,0.3,0.4,0.5,0.7,0.7
		c0.3,0.2,0.6,0.3,0.9,0.4s0.7,0.1,1,0.1c0.8,0,1.5-0.2,2-0.5S99.5,41.6,99.5,41.1z"/>
	<path class="st0" d="M112.6,41.1c0-0.2,0-0.4-0.1-0.6c-0.1-0.2-0.2-0.4-0.5-0.5s-0.5-0.3-0.9-0.4s-0.8-0.3-1.4-0.4
		c-0.7-0.1-1.3-0.3-1.8-0.5c-0.5-0.2-1-0.4-1.4-0.7c-0.4-0.3-0.7-0.6-0.9-0.9c-0.2-0.4-0.3-0.8-0.3-1.3c0-0.5,0.1-0.9,0.3-1.3
		s0.5-0.8,0.9-1.1c0.4-0.3,0.9-0.5,1.4-0.7s1.2-0.3,1.8-0.3c0.7,0,1.3,0.1,1.9,0.3c0.6,0.2,1.1,0.4,1.4,0.8c0.4,0.3,0.7,0.7,0.9,1.1
		c0.2,0.4,0.3,0.9,0.3,1.4h-2c0-0.2-0.1-0.5-0.2-0.7c-0.1-0.2-0.3-0.4-0.5-0.6c-0.2-0.2-0.5-0.3-0.8-0.4c-0.3-0.1-0.7-0.2-1.1-0.2
		c-0.4,0-0.8,0-1.1,0.1c-0.3,0.1-0.6,0.2-0.8,0.4s-0.4,0.3-0.5,0.5c-0.1,0.2-0.2,0.4-0.2,0.6c0,0.2,0,0.4,0.1,0.6
		c0.1,0.2,0.2,0.3,0.4,0.5s0.5,0.3,0.8,0.4c0.4,0.1,0.8,0.2,1.3,0.3c0.7,0.1,1.3,0.3,1.9,0.5s1,0.4,1.4,0.7c0.4,0.3,0.7,0.6,0.9,1
		c0.2,0.4,0.3,0.8,0.3,1.3c0,0.5-0.1,1-0.3,1.4s-0.6,0.8-1,1.1c-0.4,0.3-0.9,0.5-1.5,0.7s-1.2,0.2-1.9,0.2c-0.8,0-1.5-0.1-2.1-0.3
		c-0.6-0.2-1.1-0.5-1.5-0.8c-0.4-0.3-0.7-0.7-1-1.2c-0.2-0.5-0.3-0.9-0.3-1.4h2c0,0.4,0.1,0.7,0.3,1c0.2,0.3,0.4,0.5,0.7,0.7
		c0.3,0.2,0.6,0.3,0.9,0.4s0.7,0.1,1,0.1c0.8,0,1.5-0.2,2-0.5S112.6,41.6,112.6,41.1z"/>
	<path class="st0" d="M118.3,32.6h5.9v9.8h3.8v1.7h-9.7v-1.7h3.9v-8.1h-3.9V32.6z M124.3,28.4h2.4l-2.9,2.8h-1.5L124.3,28.4z"/>
	<path class="st0" d="M135.6,41.3l0.2,0.7l0.2-0.7l3.2-8.7h2l-4.7,11.5H135l-4.7-11.5h2L135.6,41.3z"/>
	<path class="st0" d="M149.3,44.4c-0.8,0-1.6-0.1-2.2-0.4c-0.7-0.3-1.3-0.7-1.7-1.2c-0.5-0.5-0.9-1.1-1.1-1.8s-0.4-1.4-0.4-2.2v-0.4
		c0-0.9,0.1-1.8,0.4-2.5c0.3-0.7,0.7-1.4,1.2-1.9c0.5-0.5,1.1-0.9,1.7-1.2c0.6-0.3,1.3-0.4,1.9-0.4c0.8,0,1.6,0.1,2.2,0.4
		c0.6,0.3,1.1,0.7,1.5,1.2c0.4,0.5,0.7,1.1,0.9,1.8c0.2,0.7,0.3,1.4,0.3,2.2V39h-8.2c0,0.5,0.1,1,0.3,1.5c0.2,0.5,0.4,0.9,0.7,1.2
		c0.3,0.3,0.7,0.6,1.1,0.8c0.4,0.2,0.9,0.3,1.5,0.3c0.7,0,1.3-0.1,1.9-0.4s1-0.7,1.4-1.1l1.2,0.9c-0.2,0.3-0.4,0.6-0.7,0.8
		c-0.3,0.3-0.6,0.5-1,0.7c-0.4,0.2-0.8,0.4-1.3,0.5S149.9,44.4,149.3,44.4z M149,34.1c-0.4,0-0.8,0.1-1.1,0.2
		c-0.4,0.1-0.7,0.4-1,0.6s-0.5,0.6-0.7,1s-0.3,0.9-0.4,1.4h6.2v-0.1c0-0.4-0.1-0.8-0.2-1.1c-0.1-0.4-0.3-0.7-0.5-1
		c-0.2-0.3-0.5-0.5-0.9-0.7C150,34.1,149.5,34.1,149,34.1z"/>
	<path class="st0" d="M157.6,27.8h5.9v14.7h3.8v1.7h-9.7v-1.7h3.9V29.5h-3.9V27.8z"/>
</g>
</svg>
