<?xml version="1.0" encoding="utf-8"?>
<!-- Generator: Adobe Illustrator 22.1.0, SVG Export Plug-In . SVG Version: 6.00 Build 0)  -->
<svg version="1.1" id="Camada_1" xmlns="http://www.w3.org/2000/svg" xmlns:xlink="http://www.w3.org/1999/xlink" x="0px" y="0px"
	 viewBox="0 0 204.5 52.2" style="enable-background:new 0 0 204.5 52.2;" xml:space="preserve">
<style type="text/css">
	.st0{fill:#FFFFFF;}
</style>
<g>
	<path class="st0" d="M15.2,37.4c-0.1,0-0.1,0-0.1,0L12,34.3c-0.1,0,0,0-0.1,0c-0.1,0-0.1,0-0.1,0L10,36.1v0.1l5,5c0.1,0,0,0,0.1,0
		c0.1,0,0.1,0,0.1,0l7.6-7.6v-0.1l-1.9-1.8L15.2,37.4C15.2,37.4,15.3,37.4,15.2,37.4z"/>
	<path class="st0" d="M20.9,31.7C21,31.8,21,31.7,20.9,31.7L20.9,31.7z"/>
</g>
<g>
	<path class="st0" d="M59.6,19.2c-0.1,0.7-0.3,1.5-0.6,2.1c-0.3,0.6-0.6,1.2-1.2,1.6c-0.5,0.4-1.1,0.8-1.7,1.1s-1.4,0.4-2.1,0.4
		c-0.6,0-1.3-0.1-1.8-0.3c-0.5-0.2-1.1-0.4-1.5-0.8c-0.4-0.3-0.8-0.7-1.2-1.2c-0.3-0.4-0.5-0.9-0.7-1.5c-0.2-0.5-0.3-1.1-0.4-1.7
		c-0.1-0.6-0.1-1.2-0.2-1.8v-2.3c0-0.6,0.1-1.2,0.2-1.8c0.1-0.6,0.2-1.2,0.4-1.7c0.2-0.5,0.4-1.1,0.7-1.5c0.3-0.4,0.6-0.8,1.2-1.2
		c0.4-0.3,0.9-0.6,1.5-0.8c0.5-0.2,1.2-0.3,1.8-0.3c0.8,0,1.6,0.1,2.2,0.4c0.6,0.2,1.2,0.6,1.7,1.1c0.4,0.4,0.8,1.1,1.2,1.7
		s0.4,1.4,0.5,2.1h-2.1c-0.1-0.5-0.2-0.9-0.3-1.4c-0.1-0.4-0.4-0.8-0.6-1.2c-0.2-0.3-0.6-0.5-1.1-0.7s-0.8-0.3-1.4-0.3
		s-0.9,0.1-1.3,0.2c-0.4,0.2-0.7,0.4-0.9,0.6c-0.2,0.2-0.5,0.6-0.6,0.9c-0.2,0.3-0.3,0.7-0.4,1.2c-0.1,0.4-0.2,0.8-0.2,1.3
		c0,0.4-0.1,0.8-0.1,1.3V17c0,0.4,0,0.8,0.1,1.3c0,0.4,0.1,0.8,0.2,1.3c0.1,0.4,0.2,0.8,0.4,1.2s0.4,0.7,0.6,0.9s0.6,0.5,0.9,0.6
		c0.4,0.2,0.8,0.2,1.3,0.2c0.5,0,1.1-0.1,1.4-0.2c0.4-0.2,0.7-0.4,1.1-0.7c0.3-0.3,0.5-0.6,0.6-1.1c0.2-0.4,0.3-0.8,0.3-1.4h2.1
		V19.2z"/>
	<path class="st0" d="M70.7,24.1c-0.1-0.1-0.1-0.3-0.2-0.6c-0.1-0.3-0.1-0.5-0.1-0.7c-0.2,0.2-0.4,0.4-0.7,0.6
		c-0.2,0.2-0.5,0.3-0.8,0.5c-0.3,0.1-0.6,0.2-0.9,0.3c-0.3,0.1-0.7,0.1-1.2,0.1c-0.6,0-1.3-0.1-1.8-0.3s-0.9-0.4-1.4-0.7
		c-0.3-0.3-0.6-0.7-0.8-1.2c-0.2-0.4-0.3-0.9-0.3-1.4c0-0.6,0.1-1.3,0.4-1.8c0.3-0.5,0.6-0.9,1.2-1.3s1.1-0.6,1.8-0.7
		s1.5-0.2,2.3-0.2h2.3v-0.9c0-0.3-0.1-0.7-0.2-0.9s-0.3-0.5-0.5-0.7c-0.2-0.2-0.5-0.3-0.9-0.5c-0.4-0.2-0.7-0.2-1.2-0.2
		s-0.7,0-1.1,0.1c-0.3,0.1-0.6,0.2-0.8,0.4c-0.2,0.2-0.4,0.4-0.5,0.6c-0.1,0.2-0.2,0.5-0.2,0.7h-2.1c0-0.4,0.1-0.8,0.3-1.3
		c0.2-0.4,0.5-0.8,0.9-1.2c0.4-0.3,0.9-0.6,1.5-0.8c0.6-0.2,1.3-0.3,2-0.3c0.7,0,1.4,0.1,1.9,0.2c0.5,0.1,1.1,0.4,1.6,0.7
		c0.5,0.3,0.7,0.7,1.1,1.3c0.3,0.5,0.4,1.1,0.4,1.8v5.7c0,0.4,0,0.8,0.1,1.3c0.1,0.4,0.2,0.8,0.3,1.2V24h-2.2V24.1z M67,22.5
		c0.4,0,0.7,0,1.2-0.1c0.3-0.1,0.6-0.2,0.9-0.4c0.3-0.2,0.5-0.4,0.7-0.6c0.2-0.2,0.4-0.4,0.5-0.7v-2.4h-1.9c-1.3,0-2.1,0.2-2.8,0.5
		c-0.6,0.3-1.1,0.9-1.1,1.7c0,0.3,0,0.5,0.1,0.8c0.1,0.2,0.2,0.4,0.4,0.6s0.4,0.3,0.7,0.4C66.2,22.4,66.7,22.5,67,22.5z"/>
	<path class="st0" d="M76.9,6.9h6.2v15.4h4v1.8H76.9v-1.8H81V8.7h-4.1V6.9z"/>
	<path class="st0" d="M95.4,22.6c0.4,0,0.7-0.1,1.1-0.2c0.3-0.1,0.6-0.3,0.9-0.5c0.3-0.2,0.5-0.4,0.6-0.7c0.2-0.3,0.2-0.6,0.3-0.9h2
		c0,0.5-0.1,1.1-0.4,1.6c-0.3,0.5-0.6,0.9-1.1,1.3c-0.4,0.4-0.9,0.6-1.6,0.8c-0.6,0.2-1.2,0.3-1.9,0.3c-0.9,0-1.7-0.2-2.4-0.5
		c-0.7-0.3-1.3-0.7-1.7-1.4c-0.4-0.5-0.8-1.2-1.1-1.9c-0.2-0.7-0.3-1.5-0.3-2.3v-0.4c0-0.8,0.1-1.6,0.3-2.3s0.5-1.4,1.1-1.9
		c0.4-0.5,1.1-0.9,1.7-1.4c0.6-0.4,1.5-0.5,2.4-0.5c0.7,0,1.4,0.1,2,0.3c0.6,0.2,1.2,0.5,1.6,0.9c0.4,0.4,0.7,0.8,1.1,1.4
		c0.3,0.5,0.4,1.2,0.4,1.7h-2c0-0.3-0.1-0.7-0.2-1.1c-0.1-0.3-0.3-0.6-0.6-0.8s-0.5-0.4-0.9-0.6c-0.3-0.1-0.7-0.2-1.2-0.2
		c-0.6,0-1.2,0.1-1.6,0.4c-0.4,0.3-0.8,0.6-1.1,1.1c-0.3,0.4-0.4,0.8-0.5,1.4c-0.1,0.5-0.2,1.1-0.2,1.6V18c0,0.5,0.1,1.1,0.2,1.6
		c0.1,0.5,0.3,0.9,0.5,1.4c0.3,0.4,0.6,0.7,1.1,1.1C94.3,22.5,94.8,22.6,95.4,22.6z"/>
	<path class="st0" d="M111.9,22.4c-0.4,0.6-0.9,1.1-1.5,1.4c-0.6,0.3-1.3,0.5-2.1,0.5c-0.6,0-1.3-0.1-1.7-0.3
		c-0.5-0.2-0.9-0.5-1.4-0.9c-0.3-0.4-0.6-0.9-0.8-1.6c-0.2-0.6-0.3-1.5-0.3-2.3V12h2.1v7.2c0,0.6,0,1.2,0.1,1.7
		c0.1,0.4,0.2,0.7,0.4,1.1c0.2,0.3,0.4,0.4,0.7,0.5c0.3,0.1,0.6,0.1,1.1,0.1c0.8,0,1.6-0.2,2-0.5s0.9-0.8,1.2-1.4V12h2.1v12.1h-1.9
		L111.9,22.4z"/>
	<path class="st0" d="M118.1,6.9h6.2v15.4h4v1.8h-10.2v-1.8h4.1V8.7h-4.1V6.9z"/>
	<path class="st0" d="M139.5,24.1c-0.1-0.1-0.1-0.3-0.2-0.6c-0.1-0.3-0.1-0.5-0.1-0.7c-0.2,0.2-0.4,0.4-0.7,0.6
		c-0.2,0.2-0.5,0.3-0.8,0.5c-0.3,0.1-0.6,0.2-0.9,0.3c-0.3,0.1-0.7,0.1-1.2,0.1c-0.6,0-1.3-0.1-1.8-0.3c-0.5-0.2-0.9-0.4-1.4-0.7
		c-0.3-0.3-0.6-0.7-0.8-1.2c-0.2-0.4-0.3-0.9-0.3-1.4c0-0.6,0.1-1.3,0.4-1.8c0.3-0.5,0.6-0.9,1.2-1.3s1.1-0.6,1.8-0.7
		c0.7-0.1,1.5-0.2,2.3-0.2h2.3v-0.9c0-0.3-0.1-0.7-0.2-0.9c-0.1-0.3-0.3-0.5-0.5-0.7c-0.2-0.2-0.5-0.3-0.9-0.5
		c-0.4-0.2-0.7-0.2-1.2-0.2c-0.4,0-0.7,0-1.1,0.1s-0.6,0.2-0.8,0.4s-0.4,0.4-0.5,0.6c-0.1,0.2-0.2,0.5-0.2,0.7h-2.1
		c0-0.4,0.1-0.8,0.3-1.3c0.2-0.4,0.5-0.8,0.9-1.2c0.4-0.3,0.9-0.6,1.5-0.8c0.6-0.2,1.3-0.3,2-0.3s1.4,0.1,1.9,0.2
		c0.6,0.2,1.1,0.4,1.6,0.7c0.4,0.3,0.7,0.7,1.1,1.3c0.3,0.5,0.4,1.1,0.4,1.8v5.7c0,0.4,0,0.8,0.1,1.3c0.1,0.4,0.2,0.8,0.3,1.2V24
		h-2.2V24.1z M135.8,22.5c0.4,0,0.7,0,1.2-0.1c0.4-0.1,0.6-0.2,0.9-0.4c0.3-0.2,0.5-0.4,0.7-0.6c0.2-0.2,0.4-0.4,0.5-0.7v-2.4h-1.9
		c-1.3,0-2.1,0.2-2.8,0.5c-0.6,0.3-1.1,0.9-1.1,1.7c0,0.3,0,0.5,0.1,0.8c0.1,0.2,0.2,0.4,0.4,0.6c0.2,0.2,0.4,0.3,0.7,0.4
		S135.4,22.5,135.8,22.5z"/>
	<path class="st0" d="M144.9,17.9c0-0.9,0.1-1.7,0.3-2.5s0.5-1.4,0.9-2c0.4-0.5,0.9-0.9,1.6-1.3c0.6-0.3,1.3-0.4,2-0.4
		c0.7,0,1.4,0.1,1.9,0.3c0.5,0.2,1.1,0.6,1.4,1.1V6.8h2.1V24h-1.9l-0.1-1.3c-0.4,0.5-0.8,0.8-1.5,1.2c-0.5,0.2-1.3,0.4-2,0.4
		c-0.7,0-1.4-0.1-2-0.4s-1.1-0.7-1.5-1.3c-0.4-0.5-0.7-1.2-0.9-2c-0.2-0.7-0.3-1.6-0.3-2.4L144.9,17.9L144.9,17.9z M147,18.1
		c0,0.6,0.1,1.2,0.2,1.7c0.1,0.5,0.3,0.9,0.6,1.4c0.3,0.4,0.6,0.7,1.1,0.9c0.4,0.2,0.9,0.3,1.5,0.3c0.3,0,0.6,0,0.9-0.1
		c0.3-0.1,0.5-0.2,0.7-0.3c0.2-0.1,0.4-0.3,0.6-0.5s0.3-0.4,0.4-0.7v-5.6c-0.3-0.5-0.6-0.9-1.1-1.3c-0.4-0.3-1.1-0.5-1.7-0.5
		s-1.1,0.1-1.5,0.3c-0.4,0.2-0.7,0.5-1.1,0.9c-0.3,0.4-0.4,0.8-0.6,1.4c-0.1,0.5-0.2,1.1-0.2,1.7L147,18.1L147,18.1z"/>
	<path class="st0" d="M158.4,17.9c0-0.8,0.1-1.7,0.4-2.4c0.2-0.7,0.6-1.4,1.1-2c0.4-0.6,1.1-0.9,1.7-1.3s1.5-0.5,2.3-0.5
		s1.6,0.2,2.3,0.5c0.6,0.3,1.3,0.7,1.8,1.3c0.5,0.5,0.8,1.2,1.1,2c0.2,0.7,0.4,1.6,0.4,2.4v0.2c0,0.8-0.1,1.7-0.4,2.4
		c-0.2,0.7-0.6,1.4-1.1,2c-0.4,0.6-1.1,0.9-1.7,1.3s-1.5,0.4-2.3,0.4s-1.6-0.1-2.3-0.4c-0.7-0.3-1.3-0.7-1.8-1.3
		c-0.5-0.5-0.8-1.2-1.1-2c-0.2-0.7-0.4-1.6-0.4-2.4V17.9z M160.5,18.1c0,0.6,0.1,1.2,0.2,1.7c0.1,0.5,0.3,1.1,0.6,1.5
		c0.3,0.4,0.6,0.7,1.1,0.9c0.4,0.2,0.9,0.3,1.5,0.3s1.1-0.1,1.5-0.3c0.4-0.2,0.7-0.5,1.1-0.9c0.3-0.4,0.5-0.8,0.6-1.5
		c0.1-0.6,0.2-1.2,0.2-1.7v-0.2c0-0.6-0.1-1.2-0.2-1.7c-0.1-0.5-0.3-1.1-0.6-1.5c-0.3-0.4-0.6-0.7-1.1-0.9c-0.4-0.2-0.9-0.3-1.5-0.3
		s-1.1,0.1-1.5,0.3c-0.4,0.2-0.7,0.5-1.1,0.9c-0.3,0.4-0.5,0.8-0.6,1.5c-0.1,0.5-0.2,1.2-0.2,1.7V18.1z"/>
	<path class="st0" d="M180.7,11.7c0.2,0,0.4,0,0.6,0s0.4,0,0.6,0.1c0.2,0,0.3,0.1,0.5,0.1s0.3,0.1,0.4,0.1l-0.3,2
		c-0.4-0.1-0.7-0.1-1.2-0.2c-0.3,0-0.7-0.1-1.2-0.1c-0.9,0-1.8,0.2-2.3,0.6c-0.6,0.4-1.1,1.1-1.4,1.9V24h-2.1V11.9h2l0.1,1.9
		c0.5-0.6,1.1-1.2,1.8-1.6S179.9,11.7,180.7,11.7z"/>
	<path class="st0" d="M194.5,24.1c-0.1-0.1-0.1-0.3-0.2-0.6s-0.1-0.5-0.1-0.7c-0.2,0.2-0.4,0.4-0.7,0.6c-0.2,0.2-0.5,0.3-0.8,0.5
		c-0.3,0.1-0.6,0.2-0.9,0.3c-0.3,0.1-0.7,0.1-1.2,0.1c-0.6,0-1.3-0.1-1.8-0.3c-0.5-0.2-0.9-0.4-1.4-0.7c-0.3-0.3-0.6-0.7-0.8-1.2
		c-0.2-0.4-0.3-0.9-0.3-1.4c0-0.6,0.1-1.3,0.4-1.8c0.3-0.5,0.6-0.9,1.2-1.3s1.1-0.6,1.8-0.7c0.7-0.1,1.5-0.2,2.3-0.2h2.3v-0.9
		c0-0.3-0.1-0.7-0.2-0.9c-0.1-0.3-0.3-0.5-0.5-0.7s-0.5-0.3-0.9-0.5c-0.4-0.2-0.7-0.2-1.2-0.2c-0.4,0-0.7,0-1.1,0.1
		c-0.3,0.1-0.6,0.2-0.8,0.4c-0.2,0.2-0.4,0.4-0.5,0.6c-0.1,0.2-0.2,0.5-0.2,0.7h-2.1c0-0.4,0.1-0.8,0.3-1.3c0.2-0.4,0.5-0.8,0.9-1.2
		c0.4-0.3,0.9-0.6,1.5-0.8c0.5-0.2,1.3-0.3,2-0.3s1.4,0.1,1.9,0.2c0.6,0.2,1.1,0.4,1.6,0.7c0.4,0.3,0.7,0.7,1.1,1.3
		c0.3,0.5,0.4,1.1,0.4,1.8v5.7c0,0.4,0,0.8,0.1,1.3c0.1,0.4,0.2,0.8,0.3,1.2V24h-2.2V24.1z M190.9,22.5c0.4,0,0.7,0,1.2-0.1
		c0.4-0.1,0.6-0.2,0.9-0.4c0.3-0.2,0.5-0.4,0.7-0.6s0.4-0.4,0.5-0.7v-2.4h-1.9c-1.3,0-2.1,0.2-2.8,0.5c-0.6,0.3-1.1,0.9-1.1,1.7
		c0,0.3,0,0.5,0.1,0.8c0.1,0.2,0.2,0.4,0.4,0.6s0.4,0.3,0.7,0.4C190,22.4,190.5,22.5,190.9,22.5z"/>
	<path class="st0" d="M56.9,40.9h-5.5l-1.3,4.2H48l5.3-16.3h1.8l5.1,16.3h-2.1L56.9,40.9z M51.9,39h4.3l-2.1-7L51.9,39z"/>
	<path class="st0" d="M68,43.6c0.4,0,0.7-0.1,1.1-0.2c0.3-0.1,0.6-0.3,0.9-0.5c0.3-0.2,0.5-0.4,0.6-0.7c0.2-0.3,0.2-0.6,0.3-0.9h2
		c0,0.5-0.1,1.1-0.4,1.6s-0.6,0.9-1.1,1.3c-0.4,0.4-0.9,0.6-1.6,0.8c-0.6,0.2-1.2,0.3-1.9,0.3c-0.9,0-1.7-0.2-2.4-0.5
		c-0.7-0.3-1.3-0.7-1.7-1.4c-0.4-0.5-0.8-1.2-1.1-1.9s-0.3-1.5-0.3-2.3v-0.4c0-0.8,0.1-1.6,0.3-2.3c0.2-0.7,0.5-1.4,1.1-1.9
		c0.4-0.5,1.1-1.1,1.7-1.4c0.6-0.3,1.5-0.5,2.4-0.5c0.7,0,1.4,0.1,2,0.3c0.6,0.2,1.2,0.5,1.6,0.9s0.7,0.8,1.1,1.4
		c0.2,0.5,0.4,1.2,0.4,1.7h-2c0-0.3-0.1-0.7-0.2-1.1c-0.1-0.3-0.3-0.6-0.6-0.8c-0.2-0.2-0.5-0.4-0.9-0.6c-0.3-0.1-0.7-0.2-1.2-0.2
		c-0.6,0-1.2,0.1-1.6,0.4c-0.4,0.2-0.8,0.6-1.1,1.1c-0.3,0.4-0.4,0.8-0.5,1.4s-0.2,1.1-0.2,1.6V39c0,0.5,0.1,1.1,0.2,1.6
		s0.3,0.9,0.5,1.4c0.3,0.4,0.6,0.7,1.1,1.1C66.9,43.3,67.3,43.6,68,43.6z"/>
	<path class="st0" d="M81.9,45.3c-0.8,0-1.7-0.1-2.3-0.4c-0.7-0.3-1.4-0.7-1.8-1.3c-0.4-0.5-0.9-1.2-1.3-1.9
		c-0.3-0.7-0.4-1.5-0.4-2.3V39c0-0.9,0.1-1.9,0.4-2.6c0.3-0.7,0.7-1.5,1.3-2c0.5-0.5,1.2-0.9,1.8-1.3c0.6-0.3,1.4-0.4,2-0.4
		c0.8,0,1.7,0.1,2.3,0.4c0.6,0.3,1.2,0.7,1.6,1.3c0.4,0.5,0.7,1.2,0.9,1.9c0.2,0.7,0.3,1.5,0.3,2.3v1.1h-8.6c0,0.5,0.1,1.1,0.3,1.6
		c0.2,0.5,0.4,0.9,0.7,1.3c0.3,0.3,0.7,0.6,1.2,0.8c0.4,0.2,0.9,0.3,1.6,0.3c0.7,0,1.4-0.1,2-0.4c0.5-0.3,1.1-0.7,1.5-1.2l1.3,0.9
		c-0.2,0.3-0.4,0.6-0.7,0.8c-0.3,0.3-0.6,0.5-1.1,0.7c-0.4,0.2-0.8,0.4-1.4,0.5C82.9,45.2,82.5,45.3,81.9,45.3z M81.6,34.5
		c-0.4,0-0.8,0.1-1.2,0.2c-0.3,0.1-0.7,0.4-1.1,0.6c-0.3,0.3-0.5,0.6-0.7,1.1c-0.2,0.4-0.3,0.9-0.4,1.5h6.5v-0.1
		c0-0.4-0.1-0.8-0.2-1.2c-0.1-0.4-0.3-0.7-0.5-1.1c-0.2-0.3-0.5-0.5-0.9-0.7S82.2,34.5,81.6,34.5z"/>
	<path class="st0" d="M98.3,41.9c0-0.2,0-0.4-0.1-0.6c-0.1-0.2-0.2-0.4-0.5-0.5c-0.3-0.1-0.5-0.3-0.9-0.4c-0.4-0.1-0.8-0.3-1.5-0.4
		c-0.7-0.1-1.4-0.3-1.9-0.5c-0.5-0.2-1.1-0.4-1.5-0.7c-0.4-0.3-0.7-0.6-0.9-0.9c-0.2-0.4-0.3-0.8-0.3-1.4s0.1-0.9,0.3-1.4
		c0.2-0.4,0.5-0.8,0.9-1.2c0.4-0.3,0.9-0.5,1.5-0.7s1.3-0.3,1.9-0.3c0.7,0,1.4,0.1,2,0.3c0.6,0.2,1.2,0.4,1.5,0.8
		c0.4,0.3,0.7,0.7,0.9,1.2c0.2,0.4,0.3,0.9,0.3,1.5h-2.1c0-0.2-0.1-0.5-0.2-0.7c-0.1-0.2-0.3-0.4-0.5-0.6c-0.2-0.2-0.5-0.3-0.8-0.4
		c-0.3-0.1-0.7-0.2-1.2-0.2s-0.8,0-1.2,0.1c-0.3,0.1-0.6,0.2-0.8,0.4c-0.2,0.2-0.4,0.3-0.5,0.5s-0.2,0.4-0.2,0.6
		c0,0.2,0,0.4,0.1,0.6c0.1,0.2,0.2,0.3,0.4,0.5c0.2,0.2,0.5,0.3,0.8,0.4c0.4,0.1,0.8,0.2,1.4,0.3c0.7,0.1,1.4,0.3,2,0.5
		c0.6,0.2,1.1,0.4,1.5,0.7c0.4,0.3,0.7,0.6,0.9,1.1c0.2,0.4,0.3,0.8,0.3,1.4c0,0.5-0.1,1.1-0.3,1.5c-0.2,0.4-0.6,0.8-1.1,1.2
		s-0.9,0.5-1.6,0.7c-0.6,0.2-1.3,0.2-2,0.2c-0.8,0-1.6-0.1-2.2-0.3c-0.6-0.2-1.2-0.5-1.6-0.8c-0.4-0.3-0.7-0.7-1.1-1.3
		c-0.2-0.5-0.3-0.9-0.3-1.5h2.1c0,0.4,0.1,0.7,0.3,1.1c0.2,0.3,0.4,0.5,0.7,0.7c0.3,0.2,0.6,0.3,0.9,0.4c0.3,0.1,0.7,0.1,1.1,0.1
		c0.8,0,1.6-0.2,2.1-0.5C97.6,42.9,98.3,42.4,98.3,41.9z"/>
	<path class="st0" d="M112.1,41.9c0-0.2,0-0.4-0.1-0.6c-0.1-0.2-0.2-0.4-0.5-0.5c-0.3-0.1-0.5-0.3-0.9-0.4c-0.4-0.1-0.8-0.3-1.5-0.4
		c-0.7-0.1-1.4-0.3-1.9-0.5c-0.5-0.2-1.1-0.4-1.5-0.7c-0.4-0.3-0.7-0.6-0.9-0.9c-0.2-0.4-0.3-0.8-0.3-1.4s0.1-0.9,0.3-1.4
		c0.2-0.4,0.5-0.8,0.9-1.2c0.4-0.3,0.9-0.5,1.5-0.7c0.5-0.2,1.3-0.3,1.9-0.3c0.7,0,1.4,0.1,2,0.3c0.6,0.2,1.2,0.4,1.5,0.8
		c0.4,0.3,0.7,0.7,0.9,1.2c0.2,0.4,0.3,0.9,0.3,1.5h-2.1c0-0.2-0.1-0.5-0.2-0.7c-0.1-0.2-0.3-0.4-0.5-0.6c-0.2-0.2-0.5-0.3-0.8-0.4
		c-0.3-0.1-0.7-0.2-1.2-0.2c-0.4,0-0.8,0-1.2,0.1c-0.3,0.1-0.6,0.2-0.8,0.4s-0.4,0.3-0.5,0.5s-0.2,0.4-0.2,0.6c0,0.2,0,0.4,0.1,0.6
		c0.1,0.2,0.2,0.3,0.4,0.5c0.2,0.2,0.5,0.3,0.8,0.4c0.4,0.1,0.8,0.2,1.4,0.3c0.7,0.1,1.4,0.3,2,0.5c0.6,0.2,1.1,0.4,1.5,0.7
		c0.4,0.3,0.7,0.6,0.9,1.1c0.2,0.4,0.3,0.8,0.3,1.4c0,0.5-0.1,1.1-0.3,1.5c-0.2,0.4-0.6,0.8-1.1,1.2s-0.9,0.5-1.6,0.7
		c-0.6,0.2-1.3,0.2-2,0.2c-0.8,0-1.6-0.1-2.2-0.3s-1.2-0.5-1.6-0.8c-0.4-0.3-0.7-0.7-1.1-1.3c-0.2-0.5-0.3-0.9-0.3-1.5h2.1
		c0,0.4,0.1,0.7,0.3,1.1c0.2,0.3,0.4,0.5,0.7,0.7s0.6,0.3,0.9,0.4c0.3,0.1,0.7,0.1,1.1,0.1c0.8,0,1.6-0.2,2.1-0.5
		C111.4,42.9,112.1,42.4,112.1,41.9z"/>
	<path class="st0" d="M118.1,32.9h6.2v10.3h4V45h-10.2v-1.8h4.1v-8.5h-4.1V32.9z M124.4,28.5h2.5l-3,2.9h-1.6L124.4,28.5z"/>
	<path class="st0" d="M136.3,42.1l0.2,0.7l0.2-0.7l3.4-9.1h2.1L137.2,45h-1.6l-4.9-12.1h2.1L136.3,42.1z"/>
	<path class="st0" d="M150.7,45.3c-0.8,0-1.7-0.1-2.3-0.4c-0.7-0.3-1.4-0.7-1.8-1.3c-0.5-0.5-0.9-1.2-1.2-1.9
		c-0.2-0.7-0.4-1.5-0.4-2.3V39c0-0.9,0.1-1.9,0.4-2.6c0.3-0.7,0.7-1.5,1.3-2c0.5-0.5,1.2-0.9,1.8-1.3c0.6-0.3,1.4-0.4,2-0.4
		c0.8,0,1.7,0.1,2.3,0.4s1.2,0.7,1.6,1.3c0.4,0.5,0.7,1.2,0.9,1.9s0.3,1.5,0.3,2.3v1.1H147c0,0.5,0.1,1.1,0.3,1.6s0.4,0.9,0.7,1.3
		c0.3,0.3,0.7,0.6,1.2,0.8c0.4,0.2,0.9,0.3,1.6,0.3c0.7,0,1.4-0.1,2-0.4c0.6-0.3,1.1-0.7,1.5-1.2l1.3,0.9c-0.2,0.3-0.4,0.6-0.7,0.8
		c-0.3,0.3-0.6,0.5-1.1,0.7c-0.4,0.2-0.8,0.4-1.4,0.5C151.8,45.2,151.3,45.3,150.7,45.3z M150.3,34.5c-0.4,0-0.8,0.1-1.2,0.2
		c-0.4,0.1-0.7,0.4-1.1,0.6s-0.5,0.6-0.7,1.1s-0.3,0.9-0.4,1.5h6.5v-0.1c0-0.4-0.1-0.8-0.2-1.2c-0.1-0.4-0.3-0.7-0.5-1.1
		c-0.2-0.3-0.5-0.5-0.9-0.7C151.4,34.5,150.9,34.5,150.3,34.5z"/>
	<path class="st0" d="M159.4,27.9h6.2v15.4h4v1.8h-10.2v-1.8h4.1V29.7h-4.1V27.9z"/>
</g>
<g>
	<path class="st0" d="M18.6,34.1c0.6,0.7,1.1,1.5,1.4,2.4l2.8-2.8v-0.1l-1.9-1.8L18.6,34.1z"/>
	<path class="st0" d="M20.9,31.7C21,31.8,21,31.7,20.9,31.7L20.9,31.7z"/>
	<path class="st0" d="M31.7,1.2H5c-2.1,0-3.9,1.7-3.9,3.9v35.5c0,5.8,4.7,10.6,10.6,10.6h23.5c0.2,0,0.4-0.2,0.4-0.4V5.1
		C35.6,2.9,33.9,1.2,31.7,1.2z M23.6,34.4l-3.3,3.3c0,0.2,0,0.5,0,0.8c0,3.6-3,6.6-6.6,6.6s-6.6-3-6.6-6.6s3-6.6,6.6-6.6
		c1.5,0,3,0.5,4.1,1.4l2.3-2.3c0.2-0.2,0.5-0.3,0.8-0.3c0.3,0,0.6,0.2,0.9,0.3l1.8,1.8c0.2,0.2,0.3,0.5,0.3,0.8
		C23.9,33.9,23.8,34.2,23.6,34.4z M30.8,11.9c0,0.2-0.2,0.4-0.4,0.4H6.3c-0.2,0-0.4-0.2-0.4-0.4V6.6c0-0.2,0.2-0.4,0.4-0.4h24.1
		c0.2,0,0.4,0.2,0.4,0.4V11.9z"/>
</g>
</svg>
